<svg width="478" height="336" viewBox="0 0 478 336" fill="none" xmlns="http://www.w3.org/2000/svg">
<g filter="url(#filter0_d_10_19)">
<rect width="402" height="260" transform="translate(38 13)" fill="white"/>
<path d="M97.2759 83.9602L97.5316 82.375C98.9634 82.375 100.012 82.081 100.677 81.4929C101.35 80.9048 101.802 79.9034 102.032 78.4886L102.696 74.3977C102.892 73.2216 103.174 72.2031 103.54 71.3423C103.907 70.4815 104.388 69.7699 104.985 69.2074C105.59 68.6449 106.34 68.2273 107.235 67.9545C108.138 67.6818 109.216 67.5455 110.469 67.5455L110.06 70.0511C109.071 70.0511 108.266 70.2045 107.644 70.5114C107.022 70.8182 106.54 71.2912 106.199 71.9304C105.858 72.5696 105.611 73.392 105.458 74.3977L104.588 79.5114C104.486 80.1761 104.303 80.7812 104.039 81.3267C103.775 81.8722 103.378 82.3409 102.85 82.733C102.321 83.125 101.605 83.4276 100.702 83.6406C99.7987 83.8537 98.6566 83.9602 97.2759 83.9602ZM105.049 100.273C103.796 100.273 102.765 100.136 101.955 99.8636C101.154 99.5909 100.54 99.1733 100.114 98.6108C99.6964 98.0483 99.445 97.3366 99.3598 96.4759C99.2831 95.6151 99.3384 94.5966 99.5259 93.4205L100.191 89.3295C100.421 87.9233 100.306 86.9261 99.8456 86.3381C99.3938 85.7415 98.4521 85.4432 97.0203 85.4432L97.2759 83.858C98.6566 83.858 99.7603 83.9645 100.587 84.1776C101.422 84.3906 102.04 84.6932 102.441 85.0852C102.841 85.4773 103.084 85.946 103.169 86.4915C103.263 87.0369 103.259 87.642 103.157 88.3068L102.287 93.4205C102.117 94.4261 102.096 95.2486 102.223 95.8878C102.36 96.527 102.684 97 103.195 97.3068C103.715 97.6136 104.469 97.767 105.458 97.767L105.049 100.273ZM96.9691 85.4432L97.4805 82.375H100.498L99.9862 85.4432H96.9691ZM134.115 79H130.996C130.962 78.0881 130.774 77.2869 130.433 76.5966C130.092 75.9062 129.632 75.3267 129.053 74.858C128.482 74.3807 127.825 74.0227 127.084 73.7841C126.342 73.5455 125.55 73.4261 124.706 73.4261C123.087 73.4261 121.553 73.8395 120.104 74.6662C118.655 75.4844 117.415 76.6903 116.384 78.2841C115.352 79.8693 114.649 81.8125 114.274 84.1136C113.899 86.3466 113.955 88.2259 114.44 89.7514C114.926 91.277 115.732 92.4318 116.857 93.2159C117.982 94 119.32 94.392 120.871 94.392C121.766 94.392 122.643 94.2727 123.504 94.0341C124.374 93.7955 125.183 93.4418 125.933 92.973C126.692 92.4957 127.365 91.9119 127.953 91.2216C128.55 90.5227 129.018 89.7216 129.359 88.8182H132.53C132.061 90.1562 131.426 91.3537 130.625 92.4105C129.832 93.4673 128.916 94.3665 127.876 95.108C126.837 95.8409 125.716 96.3991 124.514 96.7827C123.312 97.1662 122.064 97.358 120.768 97.358C118.501 97.358 116.571 96.804 114.977 95.696C113.392 94.5795 112.259 93.0028 111.577 90.9659C110.903 88.9205 110.797 86.5 111.257 83.7045C111.717 80.9773 112.599 78.625 113.903 76.6477C115.207 74.6619 116.805 73.1364 118.697 72.071C120.589 70.9972 122.643 70.4602 124.859 70.4602C126.189 70.4602 127.412 70.652 128.528 71.0355C129.645 71.419 130.616 71.9815 131.443 72.723C132.27 73.456 132.913 74.3509 133.374 75.4077C133.842 76.456 134.089 77.6534 134.115 79ZM139.594 97.32C138.144 97.32 137.141 96.9147 136.586 96.104C136.074 95.2933 135.818 94.2907 135.818 93.096C135.818 91.8587 136.032 90.5573 136.458 89.192C136.885 87.8267 137.29 86.7387 137.674 85.928C139.04 83.0693 140.938 80.8933 143.37 79.4C145.845 77.864 148.384 77.096 150.986 77.096C151.328 77.096 151.669 77.096 152.01 77.096C152.394 77.096 152.757 77.1387 153.098 77.224C153.952 77.352 154.378 77.4587 154.378 77.544C154.378 77.6293 154.058 77.7147 153.418 77.8C152.821 77.8853 152.373 77.928 152.074 77.928C149.984 77.928 148.106 78.4827 146.442 79.592C144.821 80.7013 143.434 82.1093 142.282 83.816C141.13 85.5227 140.234 87.272 139.594 89.064C138.997 90.8133 138.698 92.328 138.698 93.608C138.698 94.4187 138.826 95.08 139.082 95.592C139.381 96.104 139.808 96.36 140.362 96.36C140.96 96.36 141.642 95.9547 142.41 95.144C143.178 94.3333 143.925 93.352 144.65 92.2C145.376 91.0053 146.037 89.8533 146.634 88.744C147.232 87.592 147.68 86.7173 147.978 86.12L150.73 80.36C151.456 80.1893 152.181 79.9973 152.906 79.784C153.674 79.528 154.4 79.2507 155.082 78.952C154.357 80.1893 153.653 81.4907 152.97 82.856C152.33 84.2213 151.669 85.5653 150.986 86.888C150.474 87.8693 149.962 89.0213 149.45 90.344C148.981 91.6667 148.746 92.8613 148.746 93.928V94.184C148.746 94.5253 148.789 94.9093 148.874 95.336C148.96 95.72 149.194 95.912 149.578 95.912C150.048 95.912 150.645 95.6347 151.37 95.08C152.096 94.4827 152.608 94.0347 152.906 93.736C154.272 92.3707 155.445 90.856 156.426 89.192C157.45 87.528 158.389 85.8427 159.242 84.136C159.328 84.0507 159.392 84.008 159.434 84.008C159.776 84.008 159.904 84.1787 159.818 84.52C159.818 84.52 159.712 84.712 159.498 85.096C159.328 85.48 159.221 85.6933 159.178 85.736C158.368 87.2293 157.557 88.6587 156.746 90.024C155.936 91.3893 154.976 92.6907 153.866 93.928C153.184 94.6107 152.352 95.336 151.37 96.104C150.389 96.872 149.408 97.256 148.426 97.256C147.488 97.256 146.826 96.8933 146.442 96.168C146.058 95.4 145.866 94.5467 145.866 93.608C145.866 93.0107 145.909 92.4347 145.994 91.88C146.122 91.2827 146.25 90.7707 146.378 90.344C146.08 91.112 145.546 92.0507 144.778 93.16C144.053 94.2693 143.221 95.2507 142.282 96.104C141.386 96.9147 140.49 97.32 139.594 97.32ZM178.855 69.712C178.759 70.912 178.459 71.92 177.955 72.736C177.475 73.552 176.755 74.164 175.795 74.572C174.835 74.98 173.587 75.184 172.051 75.184C170.491 75.184 169.231 74.98 168.271 74.572C167.335 74.164 166.651 73.564 166.219 72.772C165.787 71.956 165.523 70.936 165.427 69.712H168.379C168.499 71.008 168.835 71.884 169.387 72.34C169.963 72.772 170.875 72.988 172.123 72.988C173.227 72.988 174.091 72.76 174.715 72.304C175.363 71.824 175.747 70.96 175.867 69.712H178.855ZM166.219 89.476C166.219 89.692 166.207 90.004 166.183 90.412C166.183 90.796 166.171 91.216 166.147 91.672C166.123 92.104 166.099 92.524 166.075 92.932C166.051 93.316 166.027 93.628 166.003 93.868L176.335 77.704H180.223V97H177.271V85.624C177.271 85.24 177.271 84.736 177.271 84.112C177.295 83.488 177.319 82.876 177.343 82.276C177.367 81.652 177.391 81.184 177.415 80.872L167.155 97H163.231V77.704H166.219V89.476ZM204.684 80.368H198.384V97H195.252V80.368H189.024V77.704H204.684V80.368ZM218.921 97.36C217.649 97.36 216.533 97.168 215.573 96.784C214.637 96.376 213.917 95.764 213.413 94.948C212.909 94.108 212.657 93.064 212.657 91.816C212.657 91.336 212.693 90.784 212.765 90.16C212.861 89.536 212.957 88.96 213.053 88.432L215.321 77.704H218.525L216.725 86.092C217.301 85.972 217.913 85.876 218.561 85.804C219.233 85.708 219.905 85.66 220.577 85.66C221.873 85.66 222.953 85.864 223.817 86.272C224.705 86.656 225.365 87.232 225.797 88C226.229 88.744 226.445 89.656 226.445 90.736C226.445 91.936 226.169 93.04 225.617 94.048C225.089 95.056 224.273 95.86 223.169 96.46C222.065 97.06 220.649 97.36 218.921 97.36ZM219.101 94.768C219.845 94.768 220.481 94.672 221.009 94.48C221.537 94.264 221.969 93.988 222.305 93.652C222.641 93.292 222.893 92.896 223.061 92.464C223.229 92.008 223.313 91.528 223.313 91.024C223.313 90.328 223.169 89.776 222.881 89.368C222.617 88.96 222.209 88.672 221.657 88.504C221.129 88.336 220.469 88.252 219.677 88.252C219.077 88.252 218.477 88.288 217.877 88.36C217.301 88.408 216.737 88.492 216.185 88.612C216.041 89.308 215.933 89.884 215.861 90.34C215.813 90.772 215.789 91.168 215.789 91.528C215.789 92.56 216.041 93.364 216.545 93.94C217.073 94.492 217.925 94.768 219.101 94.768ZM228.353 97L232.421 77.704H235.589L231.485 97H228.353Z" fill="black"/>
<path d="M275.189 131.903V133.489C273.765 133.489 272.768 133.787 272.197 134.384C271.635 134.98 271.354 135.977 271.354 137.375V141.466C271.354 142.642 271.238 143.661 271.008 144.521C270.787 145.382 270.42 146.094 269.909 146.656C269.398 147.219 268.716 147.636 267.863 147.909C267.011 148.182 265.959 148.318 264.706 148.318V145.812C265.694 145.812 266.47 145.655 267.032 145.339C267.604 145.033 268.004 144.56 268.234 143.92C268.473 143.281 268.592 142.463 268.592 141.466V136.352C268.592 135.687 268.677 135.082 268.848 134.537C269.027 133.991 269.351 133.523 269.819 133.131C270.288 132.739 270.953 132.436 271.814 132.223C272.683 132.01 273.808 131.903 275.189 131.903ZM264.706 115.591C265.959 115.591 267.011 115.727 267.863 116C268.716 116.273 269.398 116.69 269.909 117.253C270.42 117.815 270.787 118.527 271.008 119.388C271.238 120.249 271.354 121.267 271.354 122.443V126.534C271.354 127.932 271.635 128.929 272.197 129.526C272.768 130.122 273.765 130.42 275.189 130.42V132.006C273.808 132.006 272.683 131.899 271.814 131.686C270.953 131.473 270.288 131.17 269.819 130.778C269.351 130.386 269.027 129.918 268.848 129.372C268.677 128.827 268.592 128.222 268.592 127.557V122.443C268.592 121.446 268.473 120.628 268.234 119.989C268.004 119.341 267.604 118.864 267.032 118.557C266.47 118.25 265.694 118.097 264.706 118.097V115.591ZM275.189 130.42V133.489H272.172V130.42H275.189Z" fill="black"/>
<path d="M66.433 246.905C66.015 246.905 65.6373 246.978 65.3 247.125C64.9627 247.264 64.6767 247.473 64.442 247.752C64.2073 248.023 64.0277 248.357 63.903 248.753C63.7783 249.142 63.716 249.582 63.716 250.073C63.716 250.718 63.815 251.279 64.013 251.756C64.2183 252.233 64.519 252.599 64.915 252.856C65.3183 253.113 65.8207 253.241 66.422 253.241C66.7667 253.241 67.093 253.212 67.401 253.153C67.709 253.094 68.0097 253.021 68.303 252.933V253.791C68.0097 253.901 67.7053 253.982 67.39 254.033C67.082 254.084 66.7117 254.11 66.279 254.11C65.4797 254.11 64.8123 253.945 64.277 253.615C63.7417 253.285 63.3383 252.816 63.067 252.207C62.803 251.598 62.671 250.883 62.671 250.062C62.671 249.468 62.7517 248.925 62.913 248.434C63.0817 247.943 63.3237 247.517 63.639 247.158C63.9617 246.799 64.3577 246.524 64.827 246.333C65.2963 246.135 65.8353 246.036 66.444 246.036C66.8473 246.036 67.236 246.076 67.61 246.157C67.984 246.238 68.3177 246.351 68.611 246.498L68.215 247.334C67.973 247.224 67.7017 247.125 67.401 247.037C67.1077 246.949 66.785 246.905 66.433 246.905ZM77.6952 254L76.7492 251.569H73.6362L72.7012 254H71.7002L74.7692 246.113H75.6602L78.7182 254H77.6952ZM75.5722 248.313C75.5502 248.254 75.5135 248.148 75.4622 247.994C75.4109 247.84 75.3595 247.682 75.3082 247.521C75.2642 247.352 75.2275 247.224 75.1982 247.136C75.1615 247.283 75.1212 247.433 75.0772 247.587C75.0405 247.734 75.0002 247.869 74.9562 247.994C74.9195 248.119 74.8865 248.225 74.8572 248.313L73.9662 250.689H76.4522L75.5722 248.313ZM87.8996 243.704C87.8703 244.071 87.7786 244.379 87.6246 244.628C87.4779 244.877 87.2579 245.064 86.9646 245.189C86.6713 245.314 86.2899 245.376 85.8206 245.376C85.3439 245.376 84.9589 245.314 84.6656 245.189C84.3796 245.064 84.1706 244.881 84.0386 244.639C83.9066 244.39 83.8259 244.078 83.7966 243.704H84.6986C84.7353 244.1 84.8379 244.368 85.0066 244.507C85.1826 244.639 85.4613 244.705 85.8426 244.705C86.1799 244.705 86.4439 244.635 86.6346 244.496C86.8326 244.349 86.9499 244.085 86.9866 243.704H87.8996ZM82.5536 246.146H83.4776V250.458C83.4776 250.641 83.4739 250.843 83.4666 251.063C83.4666 251.276 83.4629 251.488 83.4556 251.701C83.4483 251.914 83.4373 252.104 83.4226 252.273C83.4153 252.434 83.4079 252.559 83.4006 252.647H83.4446L87.7676 246.146H88.8676V254H87.9436V249.732C87.9436 249.534 87.9473 249.321 87.9546 249.094C87.9619 248.859 87.9693 248.636 87.9766 248.423C87.9913 248.203 88.0023 248.009 88.0096 247.84C88.0169 247.671 88.0243 247.547 88.0316 247.466H87.9876L83.6536 254H82.5536V246.146ZM96.2219 254H95.2319V247.015H92.7789V246.146H98.6639V247.015H96.2219V254ZM102.598 254V246.146H103.588V249.468H104.798C105.532 249.468 106.107 249.567 106.525 249.765C106.951 249.963 107.251 250.231 107.427 250.568C107.611 250.905 107.702 251.283 107.702 251.701C107.702 252.163 107.603 252.566 107.405 252.911C107.215 253.256 106.914 253.523 106.503 253.714C106.093 253.905 105.565 254 104.919 254H102.598ZM104.831 253.164C105.462 253.164 105.928 253.043 106.228 252.801C106.529 252.559 106.679 252.192 106.679 251.701C106.679 251.364 106.606 251.096 106.459 250.898C106.32 250.7 106.104 250.557 105.81 250.469C105.517 250.381 105.143 250.337 104.688 250.337H103.588V253.164H104.831ZM108.912 254V246.146H109.902V254H108.912ZM120.496 250.865C120.312 250.865 120.158 250.806 120.034 250.689C119.916 250.564 119.858 250.414 119.858 250.238C119.858 250.055 119.916 249.904 120.034 249.787C120.158 249.67 120.312 249.611 120.496 249.611C120.679 249.611 120.829 249.67 120.947 249.787C121.064 249.904 121.123 250.055 121.123 250.238C121.123 250.414 121.064 250.564 120.947 250.689C120.829 250.806 120.679 250.865 120.496 250.865ZM133.309 246.146C133.962 246.146 134.508 246.208 134.948 246.333C135.395 246.458 135.729 246.663 135.949 246.949C136.176 247.235 136.29 247.616 136.29 248.093C136.29 248.401 136.231 248.676 136.114 248.918C136.004 249.153 135.835 249.351 135.608 249.512C135.388 249.666 135.117 249.772 134.794 249.831V249.886C135.124 249.937 135.421 250.033 135.685 250.172C135.956 250.311 136.169 250.509 136.323 250.766C136.477 251.023 136.554 251.356 136.554 251.767C136.554 252.244 136.444 252.651 136.224 252.988C136.004 253.318 135.689 253.571 135.278 253.747C134.875 253.916 134.391 254 133.826 254H131.065V246.146H133.309ZM133.507 249.49C134.182 249.49 134.644 249.384 134.893 249.171C135.142 248.951 135.267 248.628 135.267 248.203C135.267 247.77 135.113 247.462 134.805 247.279C134.504 247.088 134.02 246.993 133.353 246.993H132.055V249.49H133.507ZM132.055 250.315V253.164H133.639C134.336 253.164 134.82 253.028 135.091 252.757C135.362 252.486 135.498 252.13 135.498 251.69C135.498 251.411 135.436 251.169 135.311 250.964C135.194 250.759 134.992 250.601 134.706 250.491C134.427 250.374 134.046 250.315 133.562 250.315H132.055ZM140.98 246.146H141.904V250.458C141.904 250.641 141.901 250.843 141.893 251.063C141.893 251.276 141.89 251.488 141.882 251.701C141.875 251.914 141.864 252.104 141.849 252.273C141.842 252.434 141.835 252.559 141.827 252.647H141.871L146.194 246.146H147.294V254H146.37V249.732C146.37 249.534 146.374 249.321 146.381 249.094C146.389 248.859 146.396 248.636 146.403 248.423C146.418 248.203 146.429 248.009 146.436 247.84C146.444 247.671 146.451 247.547 146.458 247.466H146.414L142.08 254H140.98V246.146ZM156.805 247.983C156.805 248.518 156.636 248.944 156.299 249.259C155.961 249.567 155.51 249.765 154.946 249.853V249.897C155.606 249.985 156.108 250.19 156.453 250.513C156.797 250.836 156.97 251.257 156.97 251.778C156.97 252.24 156.852 252.647 156.618 252.999C156.383 253.344 156.031 253.615 155.562 253.813C155.092 254.011 154.506 254.11 153.802 254.11C153.376 254.11 152.969 254.077 152.581 254.011C152.199 253.952 151.844 253.842 151.514 253.681V252.779C151.741 252.889 151.983 252.984 152.24 253.065C152.504 253.138 152.768 253.197 153.032 253.241C153.296 253.278 153.549 253.296 153.791 253.296C154.495 253.296 155.026 253.164 155.386 252.9C155.752 252.636 155.936 252.262 155.936 251.778C155.936 251.279 155.723 250.916 155.298 250.689C154.872 250.462 154.278 250.348 153.516 250.348H152.394V249.523H153.461C153.981 249.523 154.41 249.464 154.748 249.347C155.092 249.23 155.349 249.065 155.518 248.852C155.694 248.632 155.782 248.375 155.782 248.082C155.782 247.686 155.635 247.382 155.342 247.169C155.048 246.956 154.667 246.85 154.198 246.85C153.706 246.85 153.296 246.912 152.966 247.037C152.643 247.162 152.328 247.323 152.02 247.521L151.547 246.85C151.752 246.696 151.987 246.56 152.251 246.443C152.522 246.318 152.823 246.219 153.153 246.146C153.483 246.073 153.835 246.036 154.209 246.036C154.773 246.036 155.246 246.12 155.628 246.289C156.016 246.458 156.31 246.689 156.508 246.982C156.706 247.268 156.805 247.602 156.805 247.983ZM161.391 246.146H162.315V250.458C162.315 250.641 162.311 250.843 162.304 251.063C162.304 251.276 162.3 251.488 162.293 251.701C162.285 251.914 162.274 252.104 162.26 252.273C162.252 252.434 162.245 252.559 162.238 252.647H162.282L166.605 246.146H167.705V254H166.78V249.732C166.78 249.534 166.784 249.321 166.792 249.094C166.799 248.859 166.806 248.636 166.814 248.423C166.828 248.203 166.839 248.009 166.847 247.84C166.854 247.671 166.861 247.547 166.869 247.466H166.825L162.491 254H161.391V246.146ZM175.059 254H174.069V247.015H171.616V246.146H177.501V247.015H175.059V254ZM187.441 254H186.451V250.337H182.425V254H181.435V246.146H182.425V249.468H186.451V246.146H187.441V254ZM192.338 254V246.146H193.328V249.468H194.538C195.272 249.468 195.847 249.567 196.265 249.765C196.691 249.963 196.991 250.231 197.167 250.568C197.351 250.905 197.442 251.283 197.442 251.701C197.442 252.163 197.343 252.566 197.145 252.911C196.955 253.256 196.654 253.523 196.243 253.714C195.833 253.905 195.305 254 194.659 254H192.338ZM194.571 253.164C195.202 253.164 195.668 253.043 195.968 252.801C196.269 252.559 196.419 252.192 196.419 251.701C196.419 251.364 196.346 251.096 196.199 250.898C196.06 250.7 195.844 250.557 195.55 250.469C195.257 250.381 194.883 250.337 194.428 250.337H193.328V253.164H194.571ZM198.652 254V246.146H199.642V254H198.652ZM208.92 254H204.531V246.146H208.92V247.015H205.521V249.468H208.722V250.326H205.521V253.131H208.92V254ZM224.796 254H223.608L220.055 250.018V254H219.065V246.146H220.055V249.952L223.52 246.146H224.642L221.232 249.963L224.796 254ZM233.543 254L232.597 251.569H229.484L228.549 254H227.548L230.617 246.113H231.508L234.566 254H233.543ZM231.42 248.313C231.398 248.254 231.361 248.148 231.31 247.994C231.259 247.84 231.207 247.682 231.156 247.521C231.112 247.352 231.075 247.224 231.046 247.136C231.009 247.283 230.969 247.433 230.925 247.587C230.888 247.734 230.848 247.869 230.804 247.994C230.767 248.119 230.734 248.225 230.705 248.313L229.814 250.689H232.3L231.42 248.313ZM240.469 246.146C241.496 246.146 242.244 246.348 242.713 246.751C243.183 247.154 243.417 247.723 243.417 248.456C243.417 248.779 243.362 249.09 243.252 249.391C243.15 249.684 242.977 249.948 242.735 250.183C242.493 250.418 242.171 250.605 241.767 250.744C241.364 250.876 240.869 250.942 240.282 250.942H239.38V254H238.39V246.146H240.469ZM240.381 246.993H239.38V250.095H240.172C240.671 250.095 241.085 250.044 241.415 249.941C241.745 249.831 241.991 249.659 242.152 249.424C242.314 249.189 242.394 248.881 242.394 248.5C242.394 247.994 242.233 247.616 241.91 247.367C241.588 247.118 241.078 246.993 240.381 246.993ZM250.286 254H249.296V247.015H246.843V246.146H252.728V247.015H250.286V254ZM263.301 250.062C263.301 250.671 263.224 251.224 263.07 251.723C262.916 252.214 262.685 252.64 262.377 252.999C262.076 253.358 261.699 253.633 261.244 253.824C260.797 254.015 260.276 254.11 259.682 254.11C259.066 254.11 258.531 254.015 258.076 253.824C257.621 253.626 257.244 253.351 256.943 252.999C256.642 252.64 256.419 252.211 256.272 251.712C256.125 251.213 256.052 250.66 256.052 250.051C256.052 249.244 256.184 248.54 256.448 247.939C256.712 247.338 257.112 246.868 257.647 246.531C258.19 246.194 258.872 246.025 259.693 246.025C260.478 246.025 261.138 246.194 261.673 246.531C262.208 246.861 262.612 247.33 262.883 247.939C263.162 248.54 263.301 249.248 263.301 250.062ZM257.097 250.062C257.097 250.722 257.189 251.29 257.372 251.767C257.555 252.244 257.838 252.61 258.219 252.867C258.608 253.124 259.095 253.252 259.682 253.252C260.276 253.252 260.76 253.124 261.134 252.867C261.515 252.61 261.798 252.244 261.981 251.767C262.164 251.29 262.256 250.722 262.256 250.062C262.256 249.072 262.051 248.298 261.64 247.741C261.229 247.176 260.58 246.894 259.693 246.894C259.099 246.894 258.608 247.022 258.219 247.279C257.838 247.528 257.555 247.891 257.372 248.368C257.189 248.837 257.097 249.402 257.097 250.062ZM273.121 254H272.131V250.777C271.705 250.924 271.306 251.045 270.932 251.14C270.565 251.228 270.154 251.272 269.7 251.272C268.966 251.272 268.398 251.103 267.995 250.766C267.591 250.421 267.39 249.926 267.39 249.281V246.146H268.38V249.138C268.38 249.563 268.49 249.882 268.71 250.095C268.937 250.3 269.3 250.403 269.799 250.403C270.231 250.403 270.62 250.363 270.965 250.282C271.309 250.201 271.698 250.091 272.131 249.952V246.146H273.121V254ZM283.738 254H282.55L278.997 250.018V254H278.007V246.146H278.997V249.952L282.462 246.146H283.584L280.174 249.963L283.738 254ZM287.568 246.146H288.492V250.458C288.492 250.641 288.489 250.843 288.481 251.063C288.481 251.276 288.478 251.488 288.47 251.701C288.463 251.914 288.452 252.104 288.437 252.273C288.43 252.434 288.423 252.559 288.415 252.647H288.459L292.782 246.146H293.882V254H292.958V249.732C292.958 249.534 292.962 249.321 292.969 249.094C292.977 248.859 292.984 248.636 292.991 248.423C293.006 248.203 293.017 248.009 293.024 247.84C293.032 247.671 293.039 247.547 293.046 247.466H293.002L288.668 254H287.568V246.146ZM304.455 250.865C304.272 250.865 304.118 250.806 303.993 250.689C303.876 250.564 303.817 250.414 303.817 250.238C303.817 250.055 303.876 249.904 303.993 249.787C304.118 249.67 304.272 249.611 304.455 249.611C304.639 249.611 304.789 249.67 304.906 249.787C305.024 249.904 305.082 250.055 305.082 250.238C305.082 250.414 305.024 250.564 304.906 250.689C304.789 250.806 304.639 250.865 304.455 250.865ZM315.025 254V246.146H320.921V254H319.942V247.015H316.015V254H315.025ZM327.9 246.146C328.927 246.146 329.675 246.348 330.144 246.751C330.613 247.154 330.848 247.723 330.848 248.456C330.848 248.779 330.793 249.09 330.683 249.391C330.58 249.684 330.408 249.948 330.166 250.183C329.924 250.418 329.601 250.605 329.198 250.744C328.795 250.876 328.3 250.942 327.713 250.942H326.811V254H325.821V246.146H327.9ZM327.812 246.993H326.811V250.095H327.603C328.102 250.095 328.516 250.044 328.846 249.941C329.176 249.831 329.422 249.659 329.583 249.424C329.744 249.189 329.825 248.881 329.825 248.5C329.825 247.994 329.664 247.616 329.341 247.367C329.018 247.118 328.509 246.993 327.812 246.993ZM339.62 254H335.231V246.146H339.62V247.015H336.221V249.468H339.422V250.326H336.221V253.131H339.62V254ZM348.735 247.983C348.735 248.518 348.567 248.944 348.229 249.259C347.892 249.567 347.441 249.765 346.876 249.853V249.897C347.536 249.985 348.039 250.19 348.383 250.513C348.728 250.836 348.9 251.257 348.9 251.778C348.9 252.24 348.783 252.647 348.548 252.999C348.314 253.344 347.962 253.615 347.492 253.813C347.023 254.011 346.436 254.11 345.732 254.11C345.307 254.11 344.9 254.077 344.511 254.011C344.13 253.952 343.774 253.842 343.444 253.681V252.779C343.672 252.889 343.914 252.984 344.17 253.065C344.434 253.138 344.698 253.197 344.962 253.241C345.226 253.278 345.479 253.296 345.721 253.296C346.425 253.296 346.957 253.164 347.316 252.9C347.683 252.636 347.866 252.262 347.866 251.778C347.866 251.279 347.654 250.916 347.228 250.689C346.803 250.462 346.209 250.348 345.446 250.348H344.324V249.523H345.391C345.912 249.523 346.341 249.464 346.678 249.347C347.023 249.23 347.28 249.065 347.448 248.852C347.624 248.632 347.712 248.375 347.712 248.082C347.712 247.686 347.566 247.382 347.272 247.169C346.979 246.956 346.598 246.85 346.128 246.85C345.637 246.85 345.226 246.912 344.896 247.037C344.574 247.162 344.258 247.323 343.95 247.521L343.477 246.85C343.683 246.696 343.917 246.56 344.181 246.443C344.453 246.318 344.753 246.219 345.083 246.146C345.413 246.073 345.765 246.036 346.139 246.036C346.704 246.036 347.177 246.12 347.558 246.289C347.947 246.458 348.24 246.689 348.438 246.982C348.636 247.268 348.735 247.602 348.735 247.983ZM357.699 254H353.31V246.146H357.699V247.015H354.3V249.468H357.501V250.326H354.3V253.131H357.699V254ZM368.178 254H367.188V250.337H363.162V254H362.172V246.146H363.162V249.468H367.188V246.146H368.178V254ZM375.562 254H374.572V247.015H372.119V246.146H378.004V247.015H375.562V254ZM386.093 254L385.147 251.569H382.034L381.099 254H380.098L383.167 246.113H384.058L387.116 254H386.093ZM383.97 248.313C383.948 248.254 383.911 248.148 383.86 247.994C383.808 247.84 383.757 247.682 383.706 247.521C383.662 247.352 383.625 247.224 383.596 247.136C383.559 247.283 383.519 247.433 383.475 247.587C383.438 247.734 383.398 247.869 383.354 247.994C383.317 248.119 383.284 248.225 383.255 248.313L382.364 250.689H384.85L383.97 248.313ZM397.793 253.131V256.068H396.847V254H390.94V246.146H391.93V253.12H395.857V246.146H396.836V253.131H397.793ZM401.854 246.146H402.778V250.458C402.778 250.641 402.775 250.843 402.767 251.063C402.767 251.276 402.764 251.488 402.756 251.701C402.749 251.914 402.738 252.104 402.723 252.273C402.716 252.434 402.709 252.559 402.701 252.647H402.745L407.068 246.146H408.168V254H407.244V249.732C407.244 249.534 407.248 249.321 407.255 249.094C407.263 248.859 407.27 248.636 407.277 248.423C407.292 248.203 407.303 248.009 407.31 247.84C407.318 247.671 407.325 247.547 407.332 247.466H407.288L402.954 254H401.854V246.146ZM413.048 246.146H413.972V250.458C413.972 250.641 413.968 250.843 413.961 251.063C413.961 251.276 413.957 251.488 413.95 251.701C413.942 251.914 413.931 252.104 413.917 252.273C413.909 252.434 413.902 252.559 413.895 252.647H413.939L418.262 246.146H419.362V254H418.438V249.732C418.438 249.534 418.441 249.321 418.449 249.094C418.456 248.859 418.463 248.636 418.471 248.423C418.485 248.203 418.496 248.009 418.504 247.84C418.511 247.671 418.518 247.547 418.526 247.466H418.482L414.148 254H413.048V246.146Z" fill="black"/>
<path d="M120.202 113H119.545L116.422 109.724V113H115.9V106.574H116.422V109.688L119.455 106.574H120.094L117.061 109.697L120.202 113ZM123.163 108.131C123.703 108.131 124.105 108.263 124.369 108.527C124.633 108.791 124.765 109.211 124.765 109.787V113H124.378L124.288 112.19H124.261C124.147 112.37 124.015 112.529 123.865 112.667C123.721 112.799 123.544 112.904 123.334 112.982C123.13 113.054 122.878 113.09 122.578 113.09C122.278 113.09 122.017 113.039 121.795 112.937C121.573 112.829 121.402 112.676 121.282 112.478C121.162 112.28 121.102 112.037 121.102 111.749C121.102 111.275 121.297 110.915 121.687 110.669C122.077 110.417 122.644 110.273 123.388 110.237L124.261 110.201V109.859C124.261 109.385 124.165 109.052 123.973 108.86C123.787 108.662 123.508 108.563 123.136 108.563C122.89 108.563 122.653 108.596 122.425 108.662C122.203 108.722 121.978 108.809 121.75 108.923L121.588 108.518C121.81 108.404 122.056 108.311 122.326 108.239C122.596 108.167 122.875 108.131 123.163 108.131ZM123.442 110.615C122.836 110.645 122.383 110.753 122.083 110.939C121.783 111.119 121.633 111.392 121.633 111.758C121.633 112.052 121.726 112.277 121.912 112.433C122.098 112.583 122.35 112.658 122.668 112.658C123.178 112.658 123.568 112.517 123.838 112.235C124.114 111.953 124.255 111.557 124.261 111.047V110.579L123.442 110.615ZM127.26 108.212V110.291H130.194V108.212H130.707V113H130.194V110.732H127.26V113H126.747V108.212H127.26ZM133.256 108.212V110.291H136.19V108.212H136.703V113H136.19V110.732H133.256V113H132.743V108.212H133.256ZM138.738 113V108.212H139.251V110.219H140.808C141.192 110.219 141.507 110.273 141.753 110.381C141.999 110.483 142.179 110.636 142.293 110.84C142.413 111.038 142.473 111.278 142.473 111.56C142.473 111.86 142.41 112.118 142.284 112.334C142.164 112.55 141.975 112.715 141.717 112.829C141.459 112.943 141.129 113 140.727 113H138.738ZM140.673 112.568C141.105 112.568 141.429 112.49 141.645 112.334C141.861 112.172 141.969 111.92 141.969 111.578C141.969 111.26 141.867 111.029 141.663 110.885C141.459 110.735 141.153 110.66 140.745 110.66H139.251V112.568H140.673ZM143.247 113V108.212H143.76V113H143.247ZM145.105 114.107L145.627 112.199H146.302L145.555 114.107H145.105ZM153.815 106.484V107.267C154.427 107.279 154.934 107.378 155.336 107.564C155.744 107.75 156.047 108.017 156.245 108.365C156.443 108.713 156.542 109.136 156.542 109.634C156.542 109.994 156.488 110.324 156.38 110.624C156.272 110.918 156.104 111.176 155.876 111.398C155.648 111.614 155.363 111.785 155.021 111.911C154.679 112.031 154.277 112.097 153.815 112.109V113.09H153.293V112.109C152.825 112.097 152.42 112.031 152.078 111.911C151.736 111.785 151.451 111.614 151.223 111.398C151.001 111.182 150.836 110.927 150.728 110.633C150.62 110.339 150.566 110.015 150.566 109.661C150.566 109.307 150.62 108.986 150.728 108.698C150.836 108.404 151.001 108.155 151.223 107.951C151.445 107.741 151.727 107.579 152.069 107.465C152.417 107.345 152.825 107.279 153.293 107.267V106.484H153.815ZM153.293 107.726C152.801 107.732 152.39 107.81 152.06 107.96C151.736 108.11 151.493 108.326 151.331 108.608C151.175 108.89 151.097 109.238 151.097 109.652C151.097 110.09 151.181 110.456 151.349 110.75C151.517 111.044 151.763 111.266 152.087 111.416C152.417 111.566 152.819 111.647 153.293 111.659V107.726ZM153.815 111.659C154.295 111.647 154.697 111.563 155.021 111.407C155.351 111.251 155.597 111.023 155.759 110.723C155.927 110.423 156.011 110.057 156.011 109.625C156.011 109.205 155.933 108.857 155.777 108.581C155.627 108.305 155.39 108.095 155.066 107.951C154.742 107.807 154.325 107.732 153.815 107.726V111.659ZM160.399 108.122C161.011 108.122 161.488 108.329 161.83 108.743C162.178 109.157 162.352 109.769 162.352 110.579C162.352 111.119 162.271 111.578 162.109 111.956C161.947 112.328 161.716 112.61 161.416 112.802C161.122 112.994 160.768 113.09 160.354 113.09C160.072 113.09 159.826 113.048 159.616 112.964C159.406 112.88 159.232 112.769 159.094 112.631C158.956 112.493 158.848 112.34 158.77 112.172H158.734C158.746 112.322 158.755 112.487 158.761 112.667C158.767 112.841 158.77 113.003 158.77 113.153V115.124H158.257V108.212H158.68L158.743 109.112H158.77C158.848 108.938 158.959 108.776 159.103 108.626C159.247 108.476 159.424 108.356 159.634 108.266C159.85 108.17 160.105 108.122 160.399 108.122ZM160.327 108.563C159.973 108.563 159.682 108.638 159.454 108.788C159.226 108.938 159.055 109.16 158.941 109.454C158.827 109.742 158.77 110.099 158.77 110.525V110.615C158.77 111.065 158.824 111.443 158.932 111.749C159.046 112.049 159.214 112.274 159.436 112.424C159.664 112.574 159.949 112.649 160.291 112.649C160.627 112.649 160.906 112.568 161.128 112.406C161.356 112.238 161.527 112.001 161.641 111.695C161.761 111.383 161.821 111.011 161.821 110.579C161.821 109.925 161.698 109.427 161.452 109.085C161.206 108.737 160.831 108.563 160.327 108.563ZM165.787 108.131C166.327 108.131 166.729 108.263 166.993 108.527C167.257 108.791 167.389 109.211 167.389 109.787V113H167.002L166.912 112.19H166.885C166.771 112.37 166.639 112.529 166.489 112.667C166.345 112.799 166.168 112.904 165.958 112.982C165.754 113.054 165.502 113.09 165.202 113.09C164.902 113.09 164.641 113.039 164.419 112.937C164.197 112.829 164.026 112.676 163.906 112.478C163.786 112.28 163.726 112.037 163.726 111.749C163.726 111.275 163.921 110.915 164.311 110.669C164.701 110.417 165.268 110.273 166.012 110.237L166.885 110.201V109.859C166.885 109.385 166.789 109.052 166.597 108.86C166.411 108.662 166.132 108.563 165.76 108.563C165.514 108.563 165.277 108.596 165.049 108.662C164.827 108.722 164.602 108.809 164.374 108.923L164.212 108.518C164.434 108.404 164.68 108.311 164.95 108.239C165.22 108.167 165.499 108.131 165.787 108.131ZM166.066 110.615C165.46 110.645 165.007 110.753 164.707 110.939C164.407 111.119 164.257 111.392 164.257 111.758C164.257 112.052 164.35 112.277 164.536 112.433C164.722 112.583 164.974 112.658 165.292 112.658C165.802 112.658 166.192 112.517 166.462 112.235C166.738 111.953 166.879 111.557 166.885 111.047V110.579L166.066 110.615ZM169.883 108.212V110.291H172.817V108.212H173.33V113H172.817V110.732H169.883V113H169.37V108.212H169.883ZM179.803 114.629H179.299V113H175.366V108.212H175.879V112.559H178.642V108.212H179.155V112.559H179.803V114.629ZM180.456 108.212H181.005L182.139 111.191C182.205 111.365 182.265 111.527 182.319 111.677C182.373 111.827 182.421 111.968 182.463 112.1C182.505 112.226 182.541 112.343 182.571 112.451H182.598C182.64 112.313 182.697 112.136 182.769 111.92C182.841 111.698 182.925 111.458 183.021 111.2L184.137 108.212H184.686L182.526 113.855C182.418 114.131 182.298 114.368 182.166 114.566C182.034 114.764 181.878 114.914 181.698 115.016C181.518 115.124 181.302 115.178 181.05 115.178C180.936 115.178 180.831 115.169 180.735 115.151C180.645 115.139 180.558 115.121 180.474 115.097V114.665C180.552 114.683 180.63 114.698 180.708 114.71C180.792 114.728 180.885 114.737 180.987 114.737C181.155 114.737 181.302 114.701 181.428 114.629C181.554 114.563 181.665 114.458 181.761 114.314C181.857 114.176 181.944 114.002 182.022 113.792L182.337 112.982L180.456 108.212ZM187.041 108.122C187.377 108.122 187.665 108.173 187.905 108.275C188.145 108.371 188.328 108.512 188.454 108.698C188.58 108.878 188.643 109.1 188.643 109.364C188.643 109.64 188.568 109.868 188.418 110.048C188.268 110.228 188.058 110.357 187.788 110.435V110.453C188.004 110.507 188.187 110.588 188.337 110.696C188.493 110.804 188.61 110.939 188.688 111.101C188.772 111.257 188.814 111.443 188.814 111.659C188.814 111.947 188.739 112.199 188.589 112.415C188.445 112.631 188.232 112.799 187.95 112.919C187.674 113.033 187.338 113.09 186.942 113.09C186.726 113.09 186.522 113.075 186.33 113.045C186.138 113.021 185.964 112.985 185.808 112.937C185.658 112.889 185.526 112.835 185.412 112.775V112.289C185.628 112.397 185.862 112.487 186.114 112.559C186.366 112.625 186.639 112.658 186.933 112.658C187.197 112.658 187.431 112.622 187.635 112.55C187.845 112.472 188.007 112.358 188.121 112.208C188.241 112.058 188.301 111.866 188.301 111.632C188.301 111.41 188.247 111.23 188.139 111.092C188.031 110.954 187.872 110.855 187.662 110.795C187.458 110.729 187.2 110.696 186.888 110.696H186.249V110.264H186.825C187.227 110.264 187.548 110.195 187.788 110.057C188.028 109.919 188.148 109.697 188.148 109.391C188.148 109.121 188.049 108.917 187.851 108.779C187.659 108.635 187.38 108.563 187.014 108.563C186.756 108.563 186.525 108.593 186.321 108.653C186.117 108.707 185.904 108.785 185.682 108.887L185.502 108.464C185.73 108.356 185.967 108.272 186.213 108.212C186.465 108.152 186.741 108.122 187.041 108.122ZM192.414 113.09C191.946 113.09 191.547 112.994 191.217 112.802C190.893 112.604 190.644 112.322 190.47 111.956C190.302 111.59 190.218 111.149 190.218 110.633C190.218 110.093 190.314 109.637 190.506 109.265C190.704 108.893 190.974 108.611 191.316 108.419C191.658 108.221 192.06 108.122 192.522 108.122C192.75 108.122 192.963 108.146 193.161 108.194C193.365 108.236 193.545 108.293 193.701 108.365L193.566 108.797C193.404 108.731 193.23 108.68 193.044 108.644C192.858 108.602 192.681 108.581 192.513 108.581C192.129 108.581 191.805 108.665 191.541 108.833C191.283 108.995 191.085 109.229 190.947 109.535C190.815 109.841 190.749 110.207 190.749 110.633C190.749 111.029 190.806 111.38 190.92 111.686C191.04 111.986 191.223 112.22 191.469 112.388C191.715 112.556 192.03 112.64 192.414 112.64C192.648 112.64 192.867 112.616 193.071 112.568C193.281 112.52 193.473 112.457 193.647 112.379V112.847C193.491 112.913 193.311 112.97 193.107 113.018C192.903 113.066 192.672 113.09 192.414 113.09ZM197.874 108.212H198.459L196.317 110.534L198.594 113H197.973L195.741 110.579V113H195.228V108.212H195.741V110.543L197.874 108.212ZM201.623 108.131C202.163 108.131 202.565 108.263 202.829 108.527C203.093 108.791 203.225 109.211 203.225 109.787V113H202.838L202.748 112.19H202.721C202.607 112.37 202.475 112.529 202.325 112.667C202.181 112.799 202.004 112.904 201.794 112.982C201.59 113.054 201.338 113.09 201.038 113.09C200.738 113.09 200.477 113.039 200.255 112.937C200.033 112.829 199.862 112.676 199.742 112.478C199.622 112.28 199.562 112.037 199.562 111.749C199.562 111.275 199.757 110.915 200.147 110.669C200.537 110.417 201.104 110.273 201.848 110.237L202.721 110.201V109.859C202.721 109.385 202.625 109.052 202.433 108.86C202.247 108.662 201.968 108.563 201.596 108.563C201.35 108.563 201.113 108.596 200.885 108.662C200.663 108.722 200.438 108.809 200.21 108.923L200.048 108.518C200.27 108.404 200.516 108.311 200.786 108.239C201.056 108.167 201.335 108.131 201.623 108.131ZM201.902 110.615C201.296 110.645 200.843 110.753 200.543 110.939C200.243 111.119 200.093 111.392 200.093 111.758C200.093 112.052 200.186 112.277 200.372 112.433C200.558 112.583 200.81 112.658 201.128 112.658C201.638 112.658 202.028 112.517 202.298 112.235C202.574 111.953 202.715 111.557 202.721 111.047V110.579L201.902 110.615ZM205.189 113H204.586L206.017 110.948C205.765 110.912 205.549 110.84 205.369 110.732C205.189 110.624 205.048 110.477 204.946 110.291C204.85 110.105 204.802 109.88 204.802 109.616C204.802 109.148 204.952 108.797 205.252 108.563C205.552 108.329 205.942 108.212 206.422 108.212H208.429V113H207.925V111.002H206.539L205.189 113ZM205.306 109.616C205.306 109.934 205.408 110.174 205.612 110.336C205.816 110.492 206.122 110.57 206.53 110.57H207.925V108.653H206.476C206.086 108.653 205.792 108.737 205.594 108.905C205.402 109.073 205.306 109.31 205.306 109.616ZM215.147 106.574C215.921 106.574 216.5 106.724 216.884 107.024C217.268 107.324 217.46 107.78 217.46 108.392C217.46 108.698 217.409 108.974 217.307 109.22C217.211 109.466 217.061 109.676 216.857 109.85C216.659 110.018 216.404 110.147 216.092 110.237C215.786 110.327 215.423 110.372 215.003 110.372H214.067V113H213.545V106.574H215.147ZM215.093 107.033H214.067V109.922H214.949C215.363 109.922 215.717 109.877 216.011 109.787C216.311 109.691 216.536 109.535 216.686 109.319C216.842 109.097 216.92 108.797 216.92 108.419C216.92 107.939 216.773 107.588 216.479 107.366C216.185 107.144 215.723 107.033 215.093 107.033ZM219.673 111.551C219.673 111.611 219.673 111.68 219.673 111.758C219.673 111.836 219.67 111.917 219.664 112.001C219.664 112.079 219.661 112.157 219.655 112.235C219.649 112.307 219.646 112.376 219.646 112.442L222.445 108.212H223.075V113H222.589V109.661C222.589 109.571 222.589 109.472 222.589 109.364C222.589 109.256 222.592 109.148 222.598 109.04C222.604 108.932 222.607 108.839 222.607 108.761L219.808 113H219.187V108.212H219.673V111.551ZM228.748 109.382C228.748 109.682 228.667 109.919 228.505 110.093C228.343 110.267 228.13 110.387 227.866 110.453V110.48C228.178 110.528 228.433 110.645 228.631 110.831C228.829 111.011 228.928 111.278 228.928 111.632C228.928 111.842 228.892 112.031 228.82 112.199C228.748 112.367 228.64 112.511 228.496 112.631C228.352 112.751 228.169 112.844 227.947 112.91C227.725 112.97 227.461 113 227.155 113H225.112V108.212H227.11C227.464 108.212 227.761 108.257 228.001 108.347C228.247 108.431 228.433 108.56 228.559 108.734C228.685 108.908 228.748 109.124 228.748 109.382ZM228.397 111.632C228.397 111.302 228.283 111.065 228.055 110.921C227.833 110.777 227.497 110.705 227.047 110.705H225.625V112.568H227.083C227.521 112.568 227.848 112.493 228.064 112.343C228.286 112.193 228.397 111.956 228.397 111.632ZM228.226 109.436C228.226 109.184 228.139 108.992 227.965 108.86C227.791 108.722 227.494 108.653 227.074 108.653H225.625V110.264H227.011C227.425 110.264 227.731 110.195 227.929 110.057C228.127 109.919 228.226 109.712 228.226 109.436ZM232.837 110.219C233.221 110.219 233.536 110.273 233.782 110.381C234.034 110.483 234.22 110.636 234.34 110.84C234.466 111.038 234.529 111.278 234.529 111.56C234.529 111.86 234.463 112.118 234.331 112.334C234.205 112.55 234.01 112.715 233.746 112.829C233.488 112.943 233.158 113 232.756 113H230.677V108.212H231.19V110.219H232.837ZM234.016 111.578C234.016 111.26 233.911 111.029 233.701 110.885C233.491 110.735 233.182 110.66 232.774 110.66H231.19V112.568H232.72C233.152 112.568 233.476 112.487 233.692 112.325C233.908 112.163 234.016 111.914 234.016 111.578ZM238.104 108.122C238.518 108.122 238.86 108.218 239.13 108.41C239.406 108.596 239.613 108.854 239.751 109.184C239.895 109.514 239.967 109.895 239.967 110.327V110.669H236.547C236.547 111.311 236.694 111.8 236.988 112.136C237.288 112.472 237.711 112.64 238.257 112.64C238.557 112.64 238.818 112.616 239.04 112.568C239.262 112.52 239.505 112.436 239.769 112.316V112.784C239.529 112.892 239.292 112.97 239.058 113.018C238.824 113.066 238.551 113.09 238.239 113.09C237.765 113.09 237.36 112.991 237.024 112.793C236.694 112.595 236.442 112.313 236.268 111.947C236.1 111.575 236.016 111.143 236.016 110.651C236.016 110.159 236.097 109.724 236.259 109.346C236.421 108.968 236.658 108.671 236.97 108.455C237.282 108.233 237.66 108.122 238.104 108.122ZM238.104 108.554C237.66 108.554 237.303 108.701 237.033 108.995C236.763 109.283 236.604 109.7 236.556 110.246H239.436C239.436 109.91 239.388 109.616 239.292 109.364C239.196 109.112 239.049 108.914 238.851 108.77C238.659 108.626 238.41 108.554 238.104 108.554ZM243.853 108.122C244.465 108.122 244.942 108.329 245.284 108.743C245.632 109.157 245.806 109.769 245.806 110.579C245.806 111.119 245.725 111.578 245.563 111.956C245.401 112.328 245.17 112.61 244.87 112.802C244.576 112.994 244.222 113.09 243.808 113.09C243.526 113.09 243.28 113.048 243.07 112.964C242.86 112.88 242.686 112.769 242.548 112.631C242.41 112.493 242.302 112.34 242.224 112.172H242.188C242.2 112.322 242.209 112.487 242.215 112.667C242.221 112.841 242.224 113.003 242.224 113.153V115.124H241.711V108.212H242.134L242.197 109.112H242.224C242.302 108.938 242.413 108.776 242.557 108.626C242.701 108.476 242.878 108.356 243.088 108.266C243.304 108.17 243.559 108.122 243.853 108.122ZM243.781 108.563C243.427 108.563 243.136 108.638 242.908 108.788C242.68 108.938 242.509 109.16 242.395 109.454C242.281 109.742 242.224 110.099 242.224 110.525V110.615C242.224 111.065 242.278 111.443 242.386 111.749C242.5 112.049 242.668 112.274 242.89 112.424C243.118 112.574 243.403 112.649 243.745 112.649C244.081 112.649 244.36 112.568 244.582 112.406C244.81 112.238 244.981 112.001 245.095 111.695C245.215 111.383 245.275 111.011 245.275 110.579C245.275 109.925 245.152 109.427 244.906 109.085C244.66 108.737 244.285 108.563 243.781 108.563ZM249.241 108.131C249.781 108.131 250.183 108.263 250.447 108.527C250.711 108.791 250.843 109.211 250.843 109.787V113H250.456L250.366 112.19H250.339C250.225 112.37 250.093 112.529 249.943 112.667C249.799 112.799 249.622 112.904 249.412 112.982C249.208 113.054 248.956 113.09 248.656 113.09C248.356 113.09 248.095 113.039 247.873 112.937C247.651 112.829 247.48 112.676 247.36 112.478C247.24 112.28 247.18 112.037 247.18 111.749C247.18 111.275 247.375 110.915 247.765 110.669C248.155 110.417 248.722 110.273 249.466 110.237L250.339 110.201V109.859C250.339 109.385 250.243 109.052 250.051 108.86C249.865 108.662 249.586 108.563 249.214 108.563C248.968 108.563 248.731 108.596 248.503 108.662C248.281 108.722 248.056 108.809 247.828 108.923L247.666 108.518C247.888 108.404 248.134 108.311 248.404 108.239C248.674 108.167 248.953 108.131 249.241 108.131ZM249.52 110.615C248.914 110.645 248.461 110.753 248.161 110.939C247.861 111.119 247.711 111.392 247.711 111.758C247.711 112.052 247.804 112.277 247.99 112.433C248.176 112.583 248.428 112.658 248.746 112.658C249.256 112.658 249.646 112.517 249.916 112.235C250.192 111.953 250.333 111.557 250.339 111.047V110.579L249.52 110.615Z" fill="black"/>
</g>
<defs>
<filter id="filter0_d_10_19" x="0" y="0" width="478" height="336" filterUnits="userSpaceOnUse" color-interpolation-filters="sRGB">
<feFlood flood-opacity="0" result="BackgroundImageFix"/>
<feColorMatrix in="SourceAlpha" type="matrix" values="0 0 0 0 0 0 0 0 0 0 0 0 0 0 0 0 0 0 127 0" result="hardAlpha"/>
<feMorphology radius="12" operator="erode" in="SourceAlpha" result="effect1_dropShadow_10_19"/>
<feOffset dy="25"/>
<feGaussianBlur stdDeviation="25"/>
<feComposite in2="hardAlpha" operator="out"/>
<feColorMatrix type="matrix" values="0 0 0 0 0 0 0 0 0 0 0 0 0 0 0 0 0 0 0.25 0"/>
<feBlend mode="normal" in2="BackgroundImageFix" result="effect1_dropShadow_10_19"/>
<feBlend mode="normal" in="SourceGraphic" in2="effect1_dropShadow_10_19" result="shape"/>
</filter>
</defs>
</svg>
