<svg width="478" height="336" viewBox="0 0 478 336" fill="none" xmlns="http://www.w3.org/2000/svg">
<g filter="url(#filter0_d_1_154)">
<rect width="402" height="260" transform="translate(38 13)" fill="white"/>
<path d="M78.577 86.0057L78.8327 84.4205C80.2645 84.4205 81.3128 84.1264 81.9776 83.5384C82.6508 82.9503 83.1026 81.9489 83.3327 80.5341L83.9974 76.4432C84.1935 75.267 84.4747 74.2486 84.8412 73.3878C85.2077 72.527 85.6892 71.8153 86.2858 71.2528C86.8909 70.6903 87.6409 70.2727 88.5358 70C89.4392 69.7273 90.5173 69.5909 91.7702 69.5909L91.3611 72.0966C90.3724 72.0966 89.567 72.25 88.9449 72.5568C88.3227 72.8636 87.8412 73.3366 87.5003 73.9759C87.1594 74.6151 86.9122 75.4375 86.7588 76.4432L85.8895 81.5568C85.7872 82.2216 85.604 82.8267 85.3398 83.3722C85.0756 83.9176 84.6793 84.3864 84.1508 84.7784C83.6224 85.1705 82.9065 85.473 82.0031 85.6861C81.0997 85.8991 79.9577 86.0057 78.577 86.0057ZM86.3497 102.318C85.0969 102.318 84.0656 102.182 83.256 101.909C82.4548 101.636 81.8412 101.219 81.4151 100.656C80.9974 100.094 80.746 99.3821 80.6608 98.5213C80.5841 97.6605 80.6395 96.642 80.827 95.4659L81.4918 91.375C81.7219 89.9688 81.6068 88.9716 81.1466 88.3835C80.6949 87.7869 79.7531 87.4886 78.3213 87.4886L78.577 85.9034C79.9577 85.9034 81.0614 86.0099 81.8881 86.223C82.7233 86.4361 83.3412 86.7386 83.7418 87.1307C84.1423 87.5227 84.3852 87.9915 84.4704 88.5369C84.5642 89.0824 84.5599 89.6875 84.4577 90.3523L83.5883 95.4659C83.4179 96.4716 83.3966 97.294 83.5244 97.9332C83.6608 98.5724 83.9847 99.0455 84.496 99.3523C85.0159 99.6591 85.7702 99.8125 86.7588 99.8125L86.3497 102.318ZM78.2702 87.4886L78.7815 84.4205H81.7986L81.2872 87.4886H78.2702ZM95.6059 97L93.4459 71.8H96.6139L98.2699 94.372H98.3779L108.89 71.8H112.058L114.614 94.408H114.722L124.406 71.8H127.538L116.342 97H111.986L109.574 76.912H109.466L99.9619 97H95.6059ZM132.299 97.64C130.464 97.64 129.163 97.0213 128.395 95.784C127.627 94.504 127.243 93.0533 127.243 91.432C127.243 90.4507 127.349 89.4907 127.563 88.552C127.776 87.6133 128.032 86.7387 128.331 85.928C128.8 84.776 129.461 83.56 130.315 82.28C131.211 80.9573 132.277 79.8267 133.515 78.888C134.752 77.9493 136.096 77.48 137.547 77.48C138.741 77.48 139.573 77.8213 140.043 78.504C140.512 79.144 140.747 79.9547 140.747 80.936C140.747 81.1067 140.747 81.2773 140.747 81.448C140.747 81.576 140.725 81.7467 140.683 81.96C140.555 83.112 140.107 84.3067 139.339 85.544C138.571 86.7813 137.611 87.8267 136.459 88.68C135.307 89.4907 134.069 89.896 132.747 89.896C131.979 89.896 131.296 89.6827 130.699 89.256C130.315 90.7067 130.123 92.0293 130.123 93.224C130.123 94.2053 130.293 95.016 130.635 95.656C131.019 96.296 131.595 96.616 132.363 96.616C133.259 96.616 134.325 96.232 135.563 95.464C136.843 94.6533 138.208 93.288 139.659 91.368C141.152 89.448 142.667 86.824 144.203 83.496C144.203 83.4533 144.245 83.432 144.331 83.432C144.459 83.432 144.587 83.496 144.715 83.624C144.885 83.7093 144.928 83.7947 144.843 83.88C142.752 88.616 140.533 92.0933 138.187 94.312C135.883 96.5307 133.92 97.64 132.299 97.64ZM132.427 88.872C133.365 88.872 134.283 88.5307 135.179 87.848C136.075 87.1227 136.885 86.2267 137.611 85.16C138.336 84.0507 138.912 82.9413 139.339 81.832C139.509 81.3627 139.595 80.8293 139.595 80.232C139.595 79.6773 139.488 79.208 139.275 78.824C139.104 78.3973 138.784 78.184 138.315 78.184C137.547 78.184 136.715 78.6747 135.819 79.656C134.923 80.5947 134.091 81.7253 133.323 83.048C132.555 84.328 131.979 85.5013 131.595 86.568C131.467 86.8667 131.339 87.1867 131.211 87.528C131.125 87.8267 131.04 88.1467 130.955 88.488C131.467 88.744 131.957 88.872 132.427 88.872ZM154.961 97.432C154.001 97.432 153.101 97.288 152.261 97C151.445 96.688 150.737 96.256 150.137 95.704C149.537 95.152 149.057 94.48 148.697 93.688H148.589L147.725 97H145.133L149.633 71.62H152.657L150.785 82.06C151.529 81.196 152.477 80.428 153.629 79.756C154.805 79.06 156.221 78.712 157.877 78.712C159.677 78.712 161.153 79.108 162.305 79.9C163.457 80.692 164.261 81.76 164.717 83.104C165.197 84.448 165.317 85.96 165.077 87.64C164.909 89.032 164.537 90.316 163.961 91.492C163.385 92.668 162.641 93.7 161.729 94.588C160.841 95.476 159.821 96.172 158.669 96.676C157.517 97.18 156.281 97.432 154.961 97.432ZM154.781 94.804C156.077 94.804 157.229 94.504 158.237 93.904C159.269 93.304 160.109 92.476 160.757 91.42C161.405 90.364 161.825 89.14 162.017 87.748C162.185 86.476 162.101 85.36 161.765 84.4C161.429 83.44 160.865 82.696 160.073 82.168C159.281 81.616 158.285 81.34 157.085 81.34C155.813 81.34 154.661 81.64 153.629 82.24C152.597 82.84 151.745 83.68 151.073 84.76C150.401 85.816 149.969 87.04 149.777 88.432C149.609 89.704 149.693 90.82 150.029 91.78C150.389 92.716 150.977 93.46 151.793 94.012C152.609 94.54 153.605 94.804 154.781 94.804ZM174.874 97.432C173.458 97.432 172.186 97.192 171.058 96.712C169.93 96.208 169.018 95.512 168.322 94.624C167.65 93.712 167.23 92.644 167.062 91.42H170.158C170.302 92.02 170.554 92.596 170.914 93.148C171.274 93.7 171.778 94.156 172.426 94.516C173.098 94.852 173.926 95.02 174.91 95.02C175.774 95.02 176.482 94.9 177.034 94.66C177.586 94.396 177.994 94.06 178.258 93.652C178.522 93.22 178.654 92.764 178.654 92.284C178.654 91.636 178.474 91.12 178.114 90.736C177.778 90.352 177.262 90.028 176.566 89.764C175.894 89.5 175.09 89.248 174.154 89.008C173.434 88.816 172.702 88.6 171.958 88.36C171.214 88.096 170.53 87.784 169.906 87.424C169.306 87.064 168.814 86.596 168.43 86.02C168.07 85.444 167.89 84.724 167.89 83.86C167.89 82.9 168.154 82.036 168.682 81.268C169.21 80.476 169.954 79.852 170.914 79.396C171.898 78.94 173.05 78.712 174.37 78.712C176.266 78.712 177.814 79.18 179.014 80.116C180.238 81.052 180.946 82.408 181.138 84.184H178.15C178.054 83.2 177.67 82.444 176.998 81.916C176.35 81.364 175.462 81.088 174.334 81.088C173.23 81.088 172.378 81.328 171.778 81.808C171.202 82.288 170.914 82.888 170.914 83.608C170.914 84.088 171.058 84.496 171.346 84.832C171.658 85.144 172.126 85.42 172.75 85.66C173.398 85.876 174.202 86.128 175.162 86.416C176.266 86.728 177.31 87.076 178.294 87.46C179.302 87.844 180.118 88.372 180.742 89.044C181.39 89.716 181.714 90.64 181.714 91.816C181.738 92.896 181.462 93.868 180.886 94.732C180.334 95.572 179.542 96.232 178.51 96.712C177.502 97.192 176.29 97.432 174.874 97.432ZM196.859 73.32C196.262 73.32 195.75 73.128 195.323 72.744C194.939 72.3173 194.747 71.8267 194.747 71.272C194.747 70.5467 194.982 69.928 195.451 69.416C195.963 68.904 196.561 68.648 197.243 68.648C197.841 68.648 198.353 68.8613 198.779 69.288C199.206 69.7147 199.419 70.248 199.419 70.888C199.419 71.5707 199.163 72.1467 198.651 72.616C198.139 73.0853 197.542 73.32 196.859 73.32ZM189.819 97.32C189.051 97.32 188.433 97.0427 187.963 96.488C187.537 95.8907 187.323 95.1227 187.323 94.184C187.323 92.9893 187.558 91.7093 188.027 90.344C188.539 88.9787 189.115 87.6133 189.755 86.248C190.438 84.84 191.035 83.5173 191.547 82.28C191.761 81.6827 191.953 81.1493 192.123 80.68C192.294 80.2107 192.379 79.8267 192.379 79.528C192.379 79.1013 192.187 78.888 191.803 78.888C191.291 78.888 190.779 79.208 190.267 79.848C189.755 80.488 189.286 81.2133 188.859 82.024C188.475 82.792 188.155 83.4107 187.899 83.88C187.259 85.1173 186.555 86.3973 185.787 87.72C185.062 89.0427 184.315 90.2587 183.547 91.368C183.547 91.4107 183.505 91.432 183.419 91.432C183.334 91.432 183.227 91.368 183.099 91.24C182.971 91.112 182.929 91.0267 182.971 90.984C183.782 89.832 184.529 88.616 185.211 87.336C185.937 86.0133 186.598 84.7547 187.195 83.56C187.622 82.664 188.091 81.7467 188.603 80.808C189.158 79.8267 189.798 79.016 190.523 78.376C191.249 77.6933 192.081 77.352 193.019 77.352C193.446 77.352 193.937 77.4587 194.491 77.672C195.131 77.928 195.451 78.4827 195.451 79.336C195.451 79.7627 195.366 80.2747 195.195 80.872C195.067 81.4267 194.875 82.0667 194.619 82.792C194.065 84.2427 193.446 85.7147 192.763 87.208C192.123 88.6587 191.526 90.1307 190.971 91.624C190.545 92.776 190.331 93.8 190.331 94.696C190.331 95.6773 190.651 96.168 191.291 96.168C191.889 96.168 192.806 95.6347 194.043 94.568C195.281 93.4587 196.433 92.072 197.499 90.408C198.566 88.7013 199.846 86.4187 201.339 83.56C201.382 83.4747 201.467 83.432 201.595 83.432C201.681 83.432 201.766 83.496 201.851 83.624C201.979 83.7093 202.022 83.7947 201.979 83.88C199.718 88.2747 197.691 91.624 195.899 93.928C194.107 96.1893 192.081 97.32 189.819 97.32ZM213.269 77.3636V79.9205H203.093V77.3636H213.269ZM206.059 72.6591H209.076V91.375C209.076 92.2273 209.2 92.8665 209.447 93.2926C209.703 93.7102 210.026 93.9915 210.418 94.1364C210.819 94.2727 211.241 94.3409 211.684 94.3409C212.017 94.3409 212.289 94.3239 212.502 94.2898C212.715 94.2472 212.886 94.2131 213.014 94.1875L213.627 96.8977C213.423 96.9744 213.137 97.0511 212.771 97.1278C212.404 97.2131 211.94 97.2557 211.377 97.2557C210.525 97.2557 209.69 97.0724 208.872 96.706C208.062 96.3395 207.389 95.7812 206.852 95.0312C206.323 94.2812 206.059 93.3352 206.059 92.1932V72.6591ZM225.95 97.4091C224.058 97.4091 222.426 96.9915 221.053 96.1562C219.69 95.3125 218.637 94.1364 217.896 92.6278C217.163 91.1108 216.796 89.3466 216.796 87.3352C216.796 85.3239 217.163 83.5511 217.896 82.017C218.637 80.4744 219.668 79.2727 220.989 78.4119C222.319 77.5426 223.87 77.108 225.643 77.108C226.666 77.108 227.676 77.2784 228.673 77.6193C229.67 77.9602 230.578 78.5142 231.396 79.2812C232.214 80.0398 232.866 81.0455 233.352 82.2983C233.838 83.5511 234.08 85.0937 234.08 86.9261V88.2045H218.944V85.5966H231.012C231.012 84.4886 230.791 83.5 230.347 82.6307C229.913 81.7614 229.291 81.0753 228.481 80.5724C227.68 80.0696 226.734 79.8182 225.643 79.8182C224.441 79.8182 223.401 80.1165 222.524 80.7131C221.654 81.3011 220.985 82.0682 220.516 83.0142C220.048 83.9602 219.813 84.9744 219.813 86.0568V87.7955C219.813 89.2784 220.069 90.5355 220.58 91.5668C221.1 92.5895 221.82 93.3693 222.741 93.9062C223.661 94.4347 224.731 94.6989 225.95 94.6989C226.742 94.6989 227.458 94.5881 228.097 94.3665C228.745 94.1364 229.303 93.7955 229.772 93.3438C230.241 92.8835 230.603 92.3125 230.859 91.6307L233.774 92.4489C233.467 93.4375 232.951 94.3068 232.227 95.0568C231.502 95.7983 230.607 96.3778 229.542 96.7955C228.477 97.2045 227.279 97.4091 225.95 97.4091ZM252.699 81.7614L249.989 82.5284C249.818 82.0767 249.567 81.6378 249.234 81.2116C248.911 80.777 248.467 80.419 247.905 80.1378C247.342 79.8565 246.622 79.7159 245.744 79.7159C244.543 79.7159 243.541 79.9929 242.74 80.5469C241.948 81.0923 241.551 81.7869 241.551 82.6307C241.551 83.3807 241.824 83.973 242.369 84.4077C242.915 84.8423 243.767 85.2045 244.926 85.4943L247.841 86.2102C249.597 86.6364 250.905 87.2884 251.766 88.1662C252.627 89.0355 253.057 90.1562 253.057 91.5284C253.057 92.6534 252.733 93.6591 252.085 94.5455C251.446 95.4318 250.551 96.1307 249.401 96.642C248.25 97.1534 246.912 97.4091 245.386 97.4091C243.384 97.4091 241.726 96.9744 240.413 96.1051C239.101 95.2358 238.27 93.9659 237.921 92.2955L240.784 91.5795C241.057 92.6364 241.573 93.429 242.331 93.9574C243.098 94.4858 244.1 94.75 245.335 94.75C246.742 94.75 247.858 94.4517 248.685 93.8551C249.52 93.25 249.938 92.5256 249.938 91.6818C249.938 91 249.699 90.429 249.222 89.9688C248.744 89.5 248.011 89.1506 247.023 88.9205L243.75 88.1534C241.952 87.7273 240.631 87.0668 239.787 86.1719C238.952 85.2685 238.534 84.1392 238.534 82.7841C238.534 81.6761 238.845 80.696 239.467 79.8438C240.098 78.9915 240.955 78.3224 242.037 77.8366C243.128 77.3509 244.364 77.108 245.744 77.108C247.688 77.108 249.213 77.5341 250.321 78.3864C251.438 79.2386 252.23 80.3636 252.699 81.7614Z" fill="black"/>
<path d="M275.189 131.903V133.489C273.765 133.489 272.768 133.787 272.197 134.384C271.635 134.98 271.354 135.977 271.354 137.375V141.466C271.354 142.642 271.238 143.661 271.008 144.521C270.787 145.382 270.42 146.094 269.909 146.656C269.398 147.219 268.716 147.636 267.863 147.909C267.011 148.182 265.959 148.318 264.706 148.318V145.812C265.694 145.812 266.47 145.655 267.032 145.339C267.604 145.033 268.004 144.56 268.234 143.92C268.473 143.281 268.592 142.463 268.592 141.466V136.352C268.592 135.687 268.677 135.082 268.848 134.537C269.027 133.991 269.351 133.523 269.819 133.131C270.288 132.739 270.953 132.436 271.814 132.223C272.683 132.01 273.808 131.903 275.189 131.903ZM264.706 115.591C265.959 115.591 267.011 115.727 267.863 116C268.716 116.273 269.398 116.69 269.909 117.253C270.42 117.815 270.787 118.527 271.008 119.388C271.238 120.249 271.354 121.267 271.354 122.443V126.534C271.354 127.932 271.635 128.929 272.197 129.526C272.768 130.122 273.765 130.42 275.189 130.42V132.006C273.808 132.006 272.683 131.899 271.814 131.686C270.953 131.473 270.288 131.17 269.819 130.778C269.351 130.386 269.027 129.918 268.848 129.372C268.677 128.827 268.592 128.222 268.592 127.557V122.443C268.592 121.446 268.473 120.628 268.234 119.989C268.004 119.341 267.604 118.864 267.032 118.557C266.47 118.25 265.694 118.097 264.706 118.097V115.591ZM275.189 130.42V133.489H272.172V130.42H275.189Z" fill="black"/>
<path d="M64.442 254L62.33 246.3H63.144L64.893 253.065L66.862 246.3H67.731L69.645 253.076L71.405 246.3H72.241L70.074 254H69.194L67.269 247.422L65.3 254H64.442ZM76.2008 254V246.3H80.8758V246.938H76.9708V249.809H80.5458V250.447H76.9708V253.362H80.8758V254H76.2008ZM85.192 254V246.3H87.777C88.3124 246.3 88.756 246.388 89.108 246.564C89.4674 246.74 89.7314 246.975 89.9 247.268C90.076 247.561 90.164 247.888 90.164 248.247C90.164 248.643 90.076 248.973 89.9 249.237C89.7314 249.501 89.5077 249.703 89.229 249.842C88.9577 249.981 88.6717 250.069 88.371 250.106L88.492 249.996C88.822 250.003 89.1264 250.091 89.405 250.26C89.6837 250.429 89.9074 250.656 90.076 250.942C90.252 251.221 90.34 251.54 90.34 251.899C90.34 252.28 90.2447 252.632 90.054 252.955C89.8707 253.27 89.5957 253.523 89.229 253.714C88.8624 253.905 88.404 254 87.854 254H85.192ZM85.962 253.351H87.799C88.349 253.351 88.778 253.219 89.086 252.955C89.394 252.691 89.548 252.324 89.548 251.855C89.548 251.4 89.3867 251.037 89.064 250.766C88.7487 250.487 88.316 250.348 87.766 250.348H85.962V253.351ZM85.962 249.721H87.755C88.2757 249.721 88.6754 249.596 88.954 249.347C89.2327 249.09 89.372 248.749 89.372 248.324C89.372 247.913 89.2327 247.583 88.954 247.334C88.6754 247.077 88.261 246.949 87.711 246.949H85.962V249.721ZM96.9247 254.132C96.3527 254.132 95.8614 254.029 95.4507 253.824C95.0401 253.619 94.7247 253.333 94.5047 252.966C94.2847 252.592 94.1747 252.167 94.1747 251.69H94.9887C94.9887 252.013 95.0584 252.31 95.1977 252.581C95.3371 252.852 95.5497 253.069 95.8357 253.23C96.1217 253.391 96.4847 253.472 96.9247 253.472C97.3061 253.472 97.6251 253.41 97.8817 253.285C98.1457 253.16 98.3437 252.992 98.4757 252.779C98.6151 252.559 98.6847 252.317 98.6847 252.053C98.6847 251.738 98.6151 251.481 98.4757 251.283C98.3437 251.085 98.1641 250.924 97.9367 250.799C97.7094 250.667 97.4454 250.553 97.1447 250.458C96.8514 250.355 96.5434 250.253 96.2207 250.15C95.6194 249.952 95.1757 249.703 94.8897 249.402C94.6037 249.094 94.4607 248.698 94.4607 248.214C94.4607 247.818 94.5524 247.466 94.7357 247.158C94.9264 246.85 95.1977 246.608 95.5497 246.432C95.9091 246.256 96.3344 246.168 96.8257 246.168C97.3024 246.168 97.7167 246.256 98.0687 246.432C98.4281 246.608 98.7067 246.854 98.9047 247.169C99.1101 247.484 99.2127 247.855 99.2127 248.28H98.4097C98.4097 248.023 98.3474 247.785 98.2227 247.565C98.1054 247.345 97.9257 247.169 97.6837 247.037C97.4491 246.905 97.1557 246.839 96.8037 246.839C96.4884 246.832 96.2134 246.883 95.9787 246.993C95.7514 247.103 95.5754 247.257 95.4507 247.455C95.3261 247.646 95.2637 247.877 95.2637 248.148C95.2637 248.419 95.3224 248.639 95.4397 248.808C95.5644 248.977 95.7367 249.116 95.9567 249.226C96.1767 249.336 96.4297 249.439 96.7157 249.534C97.0091 249.622 97.3244 249.728 97.6617 249.853C98.0137 249.978 98.3254 250.128 98.5967 250.304C98.8754 250.48 99.0917 250.704 99.2457 250.975C99.4071 251.239 99.4877 251.584 99.4877 252.009C99.4877 252.376 99.3924 252.72 99.2017 253.043C99.0184 253.366 98.7361 253.63 98.3547 253.835C97.9734 254.033 97.4967 254.132 96.9247 254.132ZM103.69 254V246.3H104.46V254H103.69ZM110.767 254V246.938H108.457V246.3H113.847V246.938H111.537V254H110.767ZM117.848 254V246.3H122.523V246.938H118.618V249.809H122.193V250.447H118.618V253.362H122.523V254H117.848ZM129.227 254.132C128.655 254.132 128.163 254.029 127.753 253.824C127.342 253.619 127.027 253.333 126.807 252.966C126.587 252.592 126.477 252.167 126.477 251.69H127.291C127.291 252.013 127.36 252.31 127.5 252.581C127.639 252.852 127.852 253.069 128.138 253.23C128.424 253.391 128.787 253.472 129.227 253.472C129.608 253.472 129.927 253.41 130.184 253.285C130.448 253.16 130.646 252.992 130.778 252.779C130.917 252.559 130.987 252.317 130.987 252.053C130.987 251.738 130.917 251.481 130.778 251.283C130.646 251.085 130.466 250.924 130.239 250.799C130.011 250.667 129.747 250.553 129.447 250.458C129.153 250.355 128.845 250.253 128.523 250.15C127.921 249.952 127.478 249.703 127.192 249.402C126.906 249.094 126.763 248.698 126.763 248.214C126.763 247.818 126.854 247.466 127.038 247.158C127.228 246.85 127.5 246.608 127.852 246.432C128.211 246.256 128.636 246.168 129.128 246.168C129.604 246.168 130.019 246.256 130.371 246.432C130.73 246.608 131.009 246.854 131.207 247.169C131.412 247.484 131.515 247.855 131.515 248.28H130.712C130.712 248.023 130.649 247.785 130.525 247.565C130.407 247.345 130.228 247.169 129.986 247.037C129.751 246.905 129.458 246.839 129.106 246.839C128.79 246.832 128.515 246.883 128.281 246.993C128.053 247.103 127.877 247.257 127.753 247.455C127.628 247.646 127.566 247.877 127.566 248.148C127.566 248.419 127.624 248.639 127.742 248.808C127.866 248.977 128.039 249.116 128.259 249.226C128.479 249.336 128.732 249.439 129.018 249.534C129.311 249.622 129.626 249.728 129.964 249.853C130.316 249.978 130.627 250.128 130.899 250.304C131.177 250.48 131.394 250.704 131.548 250.975C131.709 251.239 131.79 251.584 131.79 252.009C131.79 252.376 131.694 252.72 131.504 253.043C131.32 253.366 131.038 253.63 130.657 253.835C130.275 254.033 129.799 254.132 129.227 254.132ZM142.001 250.755C141.84 250.755 141.704 250.7 141.594 250.59C141.484 250.48 141.429 250.344 141.429 250.183C141.429 250.022 141.484 249.89 141.594 249.787C141.704 249.677 141.84 249.622 142.001 249.622C142.17 249.622 142.306 249.677 142.408 249.787C142.511 249.89 142.562 250.022 142.562 250.183C142.562 250.344 142.511 250.48 142.408 250.59C142.306 250.7 142.17 250.755 142.001 250.755ZM152.567 254V246.3H155.152C155.687 246.3 156.131 246.388 156.483 246.564C156.842 246.74 157.106 246.975 157.275 247.268C157.451 247.561 157.539 247.888 157.539 248.247C157.539 248.643 157.451 248.973 157.275 249.237C157.106 249.501 156.883 249.703 156.604 249.842C156.333 249.981 156.047 250.069 155.746 250.106L155.867 249.996C156.197 250.003 156.501 250.091 156.78 250.26C157.059 250.429 157.282 250.656 157.451 250.942C157.627 251.221 157.715 251.54 157.715 251.899C157.715 252.28 157.62 252.632 157.429 252.955C157.246 253.27 156.971 253.523 156.604 253.714C156.237 253.905 155.779 254 155.229 254H152.567ZM153.337 253.351H155.174C155.724 253.351 156.153 253.219 156.461 252.955C156.769 252.691 156.923 252.324 156.923 251.855C156.923 251.4 156.762 251.037 156.439 250.766C156.124 250.487 155.691 250.348 155.141 250.348H153.337V253.351ZM153.337 249.721H155.13C155.651 249.721 156.05 249.596 156.329 249.347C156.608 249.09 156.747 248.749 156.747 248.324C156.747 247.913 156.608 247.583 156.329 247.334C156.05 247.077 155.636 246.949 155.086 246.949H153.337V249.721ZM164.564 254.132C164.05 254.132 163.581 254.029 163.156 253.824C162.73 253.619 162.393 253.3 162.144 252.867C161.894 252.427 161.77 251.87 161.77 251.195V246.3H162.54V251.195C162.54 251.723 162.628 252.152 162.804 252.482C162.98 252.812 163.222 253.054 163.53 253.208C163.838 253.362 164.19 253.439 164.586 253.439C164.989 253.439 165.341 253.362 165.642 253.208C165.942 253.054 166.177 252.812 166.346 252.482C166.514 252.152 166.599 251.723 166.599 251.195V246.3H167.369V251.195C167.369 251.87 167.244 252.427 166.995 252.867C166.745 253.3 166.408 253.619 165.983 253.824C165.565 254.029 165.092 254.132 164.564 254.132ZM171.785 254V246.3H172.555V254H171.785ZM179.489 254.132C178.917 254.132 178.426 254.029 178.015 253.824C177.605 253.619 177.289 253.333 177.069 252.966C176.849 252.592 176.739 252.167 176.739 251.69H177.553C177.553 252.013 177.623 252.31 177.762 252.581C177.902 252.852 178.114 253.069 178.4 253.23C178.686 253.391 179.049 253.472 179.489 253.472C179.871 253.472 180.19 253.41 180.446 253.285C180.71 253.16 180.908 252.992 181.04 252.779C181.18 252.559 181.249 252.317 181.249 252.053C181.249 251.738 181.18 251.481 181.04 251.283C180.908 251.085 180.729 250.924 180.501 250.799C180.274 250.667 180.01 250.553 179.709 250.458C179.416 250.355 179.108 250.253 178.785 250.15C178.184 249.952 177.74 249.703 177.454 249.402C177.168 249.094 177.025 248.698 177.025 248.214C177.025 247.818 177.117 247.466 177.3 247.158C177.491 246.85 177.762 246.608 178.114 246.432C178.474 246.256 178.899 246.168 179.39 246.168C179.867 246.168 180.281 246.256 180.633 246.432C180.993 246.608 181.271 246.854 181.469 247.169C181.675 247.484 181.777 247.855 181.777 248.28H180.974C180.974 248.023 180.912 247.785 180.787 247.565C180.67 247.345 180.49 247.169 180.248 247.037C180.014 246.905 179.72 246.839 179.368 246.839C179.053 246.832 178.778 246.883 178.543 246.993C178.316 247.103 178.14 247.257 178.015 247.455C177.891 247.646 177.828 247.877 177.828 248.148C177.828 248.419 177.887 248.639 178.004 248.808C178.129 248.977 178.301 249.116 178.521 249.226C178.741 249.336 178.994 249.439 179.28 249.534C179.574 249.622 179.889 249.728 180.226 249.853C180.578 249.978 180.89 250.128 181.161 250.304C181.44 250.48 181.656 250.704 181.81 250.975C181.972 251.239 182.052 251.584 182.052 252.009C182.052 252.376 181.957 252.72 181.766 253.043C181.583 253.366 181.301 253.63 180.919 253.835C180.538 254.033 180.061 254.132 179.489 254.132ZM186.255 254V246.3H187.025V254H186.255ZM191.572 254V246.3H192.342L196.599 252.735V246.3H197.369V254H196.588L192.342 247.565V254H191.572ZM201.917 254V246.3H206.592V246.938H202.687V249.809H206.262V250.447H202.687V253.362H206.592V254H201.917ZM213.295 254.132C212.723 254.132 212.232 254.029 211.821 253.824C211.41 253.619 211.095 253.333 210.875 252.966C210.655 252.592 210.545 252.167 210.545 251.69H211.359C211.359 252.013 211.429 252.31 211.568 252.581C211.707 252.852 211.92 253.069 212.206 253.23C212.492 253.391 212.855 253.472 213.295 253.472C213.676 253.472 213.995 253.41 214.252 253.285C214.516 253.16 214.714 252.992 214.846 252.779C214.985 252.559 215.055 252.317 215.055 252.053C215.055 251.738 214.985 251.481 214.846 251.283C214.714 251.085 214.534 250.924 214.307 250.799C214.08 250.667 213.816 250.553 213.515 250.458C213.222 250.355 212.914 250.253 212.591 250.15C211.99 249.952 211.546 249.703 211.26 249.402C210.974 249.094 210.831 248.698 210.831 248.214C210.831 247.818 210.923 247.466 211.106 247.158C211.297 246.85 211.568 246.608 211.92 246.432C212.279 246.256 212.705 246.168 213.196 246.168C213.673 246.168 214.087 246.256 214.439 246.432C214.798 246.608 215.077 246.854 215.275 247.169C215.48 247.484 215.583 247.855 215.583 248.28H214.78C214.78 248.023 214.718 247.785 214.593 247.565C214.476 247.345 214.296 247.169 214.054 247.037C213.819 246.905 213.526 246.839 213.174 246.839C212.859 246.832 212.584 246.883 212.349 246.993C212.122 247.103 211.946 247.257 211.821 247.455C211.696 247.646 211.634 247.877 211.634 248.148C211.634 248.419 211.693 248.639 211.81 248.808C211.935 248.977 212.107 249.116 212.327 249.226C212.547 249.336 212.8 249.439 213.086 249.534C213.379 249.622 213.695 249.728 214.032 249.853C214.384 249.978 214.696 250.128 214.967 250.304C215.246 250.48 215.462 250.704 215.616 250.975C215.777 251.239 215.858 251.584 215.858 252.009C215.858 252.376 215.763 252.72 215.572 253.043C215.389 253.366 215.106 253.63 214.725 253.835C214.344 254.033 213.867 254.132 213.295 254.132ZM222.447 254.132C221.875 254.132 221.384 254.029 220.973 253.824C220.563 253.619 220.247 253.333 220.027 252.966C219.807 252.592 219.697 252.167 219.697 251.69H220.511C220.511 252.013 220.581 252.31 220.72 252.581C220.86 252.852 221.072 253.069 221.358 253.23C221.644 253.391 222.007 253.472 222.447 253.472C222.829 253.472 223.148 253.41 223.404 253.285C223.668 253.16 223.866 252.992 223.998 252.779C224.138 252.559 224.207 252.317 224.207 252.053C224.207 251.738 224.138 251.481 223.998 251.283C223.866 251.085 223.687 250.924 223.459 250.799C223.232 250.667 222.968 250.553 222.667 250.458C222.374 250.355 222.066 250.253 221.743 250.15C221.142 249.952 220.698 249.703 220.412 249.402C220.126 249.094 219.983 248.698 219.983 248.214C219.983 247.818 220.075 247.466 220.258 247.158C220.449 246.85 220.72 246.608 221.072 246.432C221.432 246.256 221.857 246.168 222.348 246.168C222.825 246.168 223.239 246.256 223.591 246.432C223.951 246.608 224.229 246.854 224.427 247.169C224.633 247.484 224.735 247.855 224.735 248.28H223.932C223.932 248.023 223.87 247.785 223.745 247.565C223.628 247.345 223.448 247.169 223.206 247.037C222.972 246.905 222.678 246.839 222.326 246.839C222.011 246.832 221.736 246.883 221.501 246.993C221.274 247.103 221.098 247.257 220.973 247.455C220.849 247.646 220.786 247.877 220.786 248.148C220.786 248.419 220.845 248.639 220.962 248.808C221.087 248.977 221.259 249.116 221.479 249.226C221.699 249.336 221.952 249.439 222.238 249.534C222.532 249.622 222.847 249.728 223.184 249.853C223.536 249.978 223.848 250.128 224.119 250.304C224.398 250.48 224.614 250.704 224.768 250.975C224.93 251.239 225.01 251.584 225.01 252.009C225.01 252.376 224.915 252.72 224.724 253.043C224.541 253.366 224.259 253.63 223.877 253.835C223.496 254.033 223.019 254.132 222.447 254.132ZM238.247 254.132C237.521 254.132 236.89 253.967 236.355 253.637C235.82 253.3 235.405 252.834 235.112 252.24C234.826 251.639 234.683 250.942 234.683 250.15C234.683 249.358 234.826 248.665 235.112 248.071C235.405 247.47 235.82 247.004 236.355 246.674C236.89 246.337 237.521 246.168 238.247 246.168C239.105 246.168 239.802 246.373 240.337 246.784C240.872 247.187 241.217 247.759 241.371 248.5H240.535C240.41 248.001 240.157 247.602 239.776 247.301C239.402 247 238.892 246.85 238.247 246.85C237.69 246.85 237.202 246.982 236.784 247.246C236.373 247.51 236.051 247.888 235.816 248.379C235.589 248.87 235.475 249.461 235.475 250.15C235.475 250.839 235.589 251.43 235.816 251.921C236.051 252.412 236.373 252.79 236.784 253.054C237.202 253.318 237.69 253.45 238.247 253.45C238.892 253.45 239.402 253.303 239.776 253.01C240.157 252.709 240.41 252.313 240.535 251.822H241.371C241.21 252.548 240.865 253.116 240.337 253.527C239.809 253.93 239.112 254.132 238.247 254.132ZM244.83 254L247.668 246.3H248.471L251.298 254H250.484L248.064 247.279L245.633 254H244.83ZM246.106 251.866L246.326 251.239H249.78L250.011 251.866H246.106ZM255.327 254V246.3H257.692C258.293 246.3 258.781 246.399 259.155 246.597C259.529 246.795 259.804 247.063 259.98 247.4C260.163 247.73 260.255 248.108 260.255 248.533C260.255 248.951 260.163 249.329 259.98 249.666C259.796 250.003 259.514 250.275 259.133 250.48C258.751 250.678 258.256 250.777 257.648 250.777H256.097V254H255.327ZM259.419 254L257.692 250.535H258.572L260.343 254H259.419ZM256.097 250.161H257.637C258.253 250.161 258.711 250.014 259.012 249.721C259.312 249.42 259.463 249.024 259.463 248.533C259.463 248.042 259.316 247.657 259.023 247.378C258.729 247.092 258.267 246.949 257.637 246.949H256.097V250.161ZM264.597 254V246.3H266.599C267.501 246.3 268.242 246.454 268.821 246.762C269.408 247.07 269.841 247.514 270.119 248.093C270.405 248.672 270.548 249.365 270.548 250.172C270.548 250.964 270.405 251.646 270.119 252.218C269.841 252.79 269.408 253.23 268.821 253.538C268.242 253.846 267.501 254 266.599 254H264.597ZM265.367 253.351H266.588C267.366 253.351 267.985 253.223 268.447 252.966C268.909 252.709 269.243 252.346 269.448 251.877C269.654 251.4 269.756 250.832 269.756 250.172C269.756 249.505 269.654 248.933 269.448 248.456C269.243 247.972 268.909 247.602 268.447 247.345C267.985 247.081 267.366 246.949 266.588 246.949H265.367V253.351ZM277.136 254.132C276.564 254.132 276.072 254.029 275.662 253.824C275.251 253.619 274.936 253.333 274.716 252.966C274.496 252.592 274.386 252.167 274.386 251.69H275.2C275.2 252.013 275.269 252.31 275.409 252.581C275.548 252.852 275.761 253.069 276.047 253.23C276.333 253.391 276.696 253.472 277.136 253.472C277.517 253.472 277.836 253.41 278.093 253.285C278.357 253.16 278.555 252.992 278.687 252.779C278.826 252.559 278.896 252.317 278.896 252.053C278.896 251.738 278.826 251.481 278.687 251.283C278.555 251.085 278.375 250.924 278.148 250.799C277.92 250.667 277.656 250.553 277.356 250.458C277.062 250.355 276.754 250.253 276.432 250.15C275.83 249.952 275.387 249.703 275.101 249.402C274.815 249.094 274.672 248.698 274.672 248.214C274.672 247.818 274.763 247.466 274.947 247.158C275.137 246.85 275.409 246.608 275.761 246.432C276.12 246.256 276.545 246.168 277.037 246.168C277.513 246.168 277.928 246.256 278.28 246.432C278.639 246.608 278.918 246.854 279.116 247.169C279.321 247.484 279.424 247.855 279.424 248.28H278.621C278.621 248.023 278.558 247.785 278.434 247.565C278.316 247.345 278.137 247.169 277.895 247.037C277.66 246.905 277.367 246.839 277.015 246.839C276.699 246.832 276.424 246.883 276.19 246.993C275.962 247.103 275.786 247.257 275.662 247.455C275.537 247.646 275.475 247.877 275.475 248.148C275.475 248.419 275.533 248.639 275.651 248.808C275.775 248.977 275.948 249.116 276.168 249.226C276.388 249.336 276.641 249.439 276.927 249.534C277.22 249.622 277.535 249.728 277.873 249.853C278.225 249.978 278.536 250.128 278.808 250.304C279.086 250.48 279.303 250.704 279.457 250.975C279.618 251.239 279.699 251.584 279.699 252.009C279.699 252.376 279.603 252.72 279.413 253.043C279.229 253.366 278.947 253.63 278.566 253.835C278.184 254.033 277.708 254.132 277.136 254.132ZM289.911 250.755C289.749 250.755 289.614 250.7 289.504 250.59C289.394 250.48 289.339 250.344 289.339 250.183C289.339 250.022 289.394 249.89 289.504 249.787C289.614 249.677 289.749 249.622 289.911 249.622C290.079 249.622 290.215 249.677 290.318 249.787C290.42 249.89 290.472 250.022 290.472 250.183C290.472 250.344 290.42 250.48 290.318 250.59C290.215 250.7 290.079 250.755 289.911 250.755ZM300.476 254V246.3H302.863C303.472 246.3 303.971 246.399 304.359 246.597C304.748 246.795 305.034 247.063 305.217 247.4C305.408 247.737 305.503 248.122 305.503 248.555C305.503 248.98 305.412 249.365 305.228 249.71C305.045 250.047 304.755 250.319 304.359 250.524C303.971 250.722 303.472 250.821 302.863 250.821H301.246V254H300.476ZM301.246 250.172H302.852C303.512 250.172 303.985 250.029 304.271 249.743C304.565 249.45 304.711 249.054 304.711 248.555C304.711 248.042 304.565 247.646 304.271 247.367C303.985 247.088 303.512 246.949 302.852 246.949H301.246V250.172ZM309.607 254V246.3H311.972C312.573 246.3 313.061 246.399 313.435 246.597C313.809 246.795 314.084 247.063 314.26 247.4C314.443 247.73 314.535 248.108 314.535 248.533C314.535 248.951 314.443 249.329 314.26 249.666C314.077 250.003 313.794 250.275 313.413 250.48C313.032 250.678 312.537 250.777 311.928 250.777H310.377V254H309.607ZM313.699 254L311.972 250.535H312.852L314.623 254H313.699ZM310.377 250.161H311.917C312.533 250.161 312.991 250.014 313.292 249.721C313.593 249.42 313.743 249.024 313.743 248.533C313.743 248.042 313.596 247.657 313.303 247.378C313.01 247.092 312.548 246.949 311.917 246.949H310.377V250.161ZM318.878 254V246.3H323.553V246.938H319.648V249.809H323.223V250.447H319.648V253.362H323.553V254H318.878ZM330.256 254.132C329.684 254.132 329.192 254.029 328.782 253.824C328.371 253.619 328.056 253.333 327.836 252.966C327.616 252.592 327.506 252.167 327.506 251.69H328.32C328.32 252.013 328.389 252.31 328.529 252.581C328.668 252.852 328.881 253.069 329.167 253.23C329.453 253.391 329.816 253.472 330.256 253.472C330.637 253.472 330.956 253.41 331.213 253.285C331.477 253.16 331.675 252.992 331.807 252.779C331.946 252.559 332.016 252.317 332.016 252.053C332.016 251.738 331.946 251.481 331.807 251.283C331.675 251.085 331.495 250.924 331.268 250.799C331.04 250.667 330.776 250.553 330.476 250.458C330.182 250.355 329.874 250.253 329.552 250.15C328.95 249.952 328.507 249.703 328.221 249.402C327.935 249.094 327.792 248.698 327.792 248.214C327.792 247.818 327.883 247.466 328.067 247.158C328.257 246.85 328.529 246.608 328.881 246.432C329.24 246.256 329.665 246.168 330.157 246.168C330.633 246.168 331.048 246.256 331.4 246.432C331.759 246.608 332.038 246.854 332.236 247.169C332.441 247.484 332.544 247.855 332.544 248.28H331.741C331.741 248.023 331.678 247.785 331.554 247.565C331.436 247.345 331.257 247.169 331.015 247.037C330.78 246.905 330.487 246.839 330.135 246.839C329.819 246.832 329.544 246.883 329.31 246.993C329.082 247.103 328.906 247.257 328.782 247.455C328.657 247.646 328.595 247.877 328.595 248.148C328.595 248.419 328.653 248.639 328.771 248.808C328.895 248.977 329.068 249.116 329.288 249.226C329.508 249.336 329.761 249.439 330.047 249.534C330.34 249.622 330.655 249.728 330.993 249.853C331.345 249.978 331.656 250.128 331.928 250.304C332.206 250.48 332.423 250.704 332.577 250.975C332.738 251.239 332.819 251.584 332.819 252.009C332.819 252.376 332.723 252.72 332.533 253.043C332.349 253.366 332.067 253.63 331.686 253.835C331.304 254.033 330.828 254.132 330.256 254.132ZM337.021 254V246.3H341.696V246.938H337.791V249.809H341.366V250.447H337.791V253.362H341.696V254H337.021ZM346.012 254V246.3H346.782L351.039 252.735V246.3H351.809V254H351.028L346.782 247.565V254H346.012ZM358.117 254V246.938H355.807V246.3H361.197V246.938H358.887V254H358.117ZM363.778 254L366.616 246.3H367.419L370.246 254H369.432L367.012 247.279L364.581 254H363.778ZM365.054 251.866L365.274 251.239H368.728L368.959 251.866H365.054ZM375.143 254V246.938H372.833V246.3H378.223V246.938H375.913V254H375.143ZM382.224 254V246.3H382.994V254H382.224ZM390.809 254.132C390.09 254.132 389.459 253.967 388.917 253.637C388.381 253.3 387.96 252.834 387.652 252.24C387.351 251.639 387.201 250.942 387.201 250.15C387.201 249.365 387.351 248.676 387.652 248.082C387.96 247.481 388.381 247.011 388.917 246.674C389.459 246.337 390.09 246.168 390.809 246.168C391.542 246.168 392.176 246.337 392.712 246.674C393.254 247.011 393.672 247.481 393.966 248.082C394.266 248.676 394.417 249.365 394.417 250.15C394.417 250.942 394.266 251.639 393.966 252.24C393.672 252.834 393.254 253.3 392.712 253.637C392.176 253.967 391.542 254.132 390.809 254.132ZM390.809 253.45C391.366 253.45 391.857 253.318 392.283 253.054C392.708 252.79 393.038 252.412 393.273 251.921C393.507 251.43 393.625 250.839 393.625 250.15C393.625 249.461 393.507 248.87 393.273 248.379C393.038 247.888 392.708 247.514 392.283 247.257C391.857 246.993 391.366 246.861 390.809 246.861C390.259 246.861 389.771 246.993 389.346 247.257C388.92 247.514 388.587 247.888 388.345 248.379C388.11 248.87 387.993 249.461 387.993 250.15C387.993 250.839 388.11 251.433 388.345 251.932C388.587 252.423 388.92 252.801 389.346 253.065C389.771 253.322 390.259 253.45 390.809 253.45ZM398.628 254V246.3H399.398L403.655 252.735V246.3H404.425V254H403.644L399.398 247.565V254H398.628ZM411.359 254.132C410.787 254.132 410.296 254.029 409.885 253.824C409.475 253.619 409.159 253.333 408.939 252.966C408.719 252.592 408.609 252.167 408.609 251.69H409.423C409.423 252.013 409.493 252.31 409.632 252.581C409.772 252.852 409.984 253.069 410.27 253.23C410.556 253.391 410.919 253.472 411.359 253.472C411.741 253.472 412.06 253.41 412.316 253.285C412.58 253.16 412.778 252.992 412.91 252.779C413.05 252.559 413.119 252.317 413.119 252.053C413.119 251.738 413.05 251.481 412.91 251.283C412.778 251.085 412.599 250.924 412.371 250.799C412.144 250.667 411.88 250.553 411.579 250.458C411.286 250.355 410.978 250.253 410.655 250.15C410.054 249.952 409.61 249.703 409.324 249.402C409.038 249.094 408.895 248.698 408.895 248.214C408.895 247.818 408.987 247.466 409.17 247.158C409.361 246.85 409.632 246.608 409.984 246.432C410.344 246.256 410.769 246.168 411.26 246.168C411.737 246.168 412.151 246.256 412.503 246.432C412.863 246.608 413.141 246.854 413.339 247.169C413.545 247.484 413.647 247.855 413.647 248.28H412.844C412.844 248.023 412.782 247.785 412.657 247.565C412.54 247.345 412.36 247.169 412.118 247.037C411.884 246.905 411.59 246.839 411.238 246.839C410.923 246.832 410.648 246.883 410.413 246.993C410.186 247.103 410.01 247.257 409.885 247.455C409.761 247.646 409.698 247.877 409.698 248.148C409.698 248.419 409.757 248.639 409.874 248.808C409.999 248.977 410.171 249.116 410.391 249.226C410.611 249.336 410.864 249.439 411.15 249.534C411.444 249.622 411.759 249.728 412.096 249.853C412.448 249.978 412.76 250.128 413.031 250.304C413.31 250.48 413.526 250.704 413.68 250.975C413.842 251.239 413.922 251.584 413.922 252.009C413.922 252.376 413.827 252.72 413.636 253.043C413.453 253.366 413.171 253.63 412.789 253.835C412.408 254.033 411.931 254.132 411.359 254.132Z" fill="black"/>
<path d="M170.357 112.908C169.769 112.908 169.256 112.773 168.818 112.503C168.386 112.227 168.053 111.846 167.819 111.36C167.585 110.868 167.468 110.298 167.468 109.65C167.468 109.002 167.585 108.435 167.819 107.949C168.053 107.457 168.386 107.076 168.818 106.806C169.256 106.53 169.769 106.392 170.357 106.392C171.059 106.392 171.626 106.56 172.058 106.896C172.49 107.226 172.769 107.694 172.895 108.3H172.22C172.112 107.892 171.905 107.565 171.599 107.319C171.299 107.073 170.885 106.95 170.357 106.95C169.907 106.95 169.514 107.058 169.178 107.274C168.842 107.49 168.581 107.799 168.395 108.201C168.209 108.603 168.116 109.086 168.116 109.65C168.116 110.214 168.209 110.697 168.395 111.099C168.581 111.501 168.842 111.81 169.178 112.026C169.514 112.242 169.907 112.35 170.357 112.35C170.879 112.35 171.293 112.23 171.599 111.99C171.911 111.744 172.118 111.42 172.22 111.018H172.895C172.769 111.612 172.49 112.077 172.058 112.413C171.626 112.743 171.059 112.908 170.357 112.908ZM175.847 112.908C175.505 112.908 175.217 112.842 174.983 112.71C174.749 112.572 174.572 112.395 174.452 112.179C174.338 111.957 174.281 111.72 174.281 111.468C174.281 111.138 174.356 110.865 174.506 110.649C174.662 110.427 174.878 110.262 175.154 110.154C175.436 110.04 175.76 109.983 176.126 109.983H177.35C177.35 109.659 177.311 109.389 177.233 109.173C177.161 108.951 177.038 108.783 176.864 108.669C176.696 108.555 176.471 108.498 176.189 108.498C175.883 108.498 175.628 108.57 175.424 108.714C175.226 108.858 175.103 109.074 175.055 109.362H174.407C174.449 109.056 174.554 108.798 174.722 108.588C174.89 108.378 175.1 108.222 175.352 108.12C175.61 108.012 175.889 107.958 176.189 107.958C176.609 107.958 176.951 108.039 177.215 108.201C177.479 108.363 177.671 108.588 177.791 108.876C177.917 109.158 177.98 109.485 177.98 109.857V112.8H177.422L177.368 111.954C177.314 112.068 177.242 112.182 177.152 112.296C177.068 112.41 176.963 112.515 176.837 112.611C176.717 112.701 176.573 112.773 176.405 112.827C176.243 112.881 176.057 112.908 175.847 112.908ZM175.946 112.368C176.162 112.368 176.357 112.323 176.531 112.233C176.705 112.137 176.852 112.011 176.972 111.855C177.092 111.699 177.185 111.525 177.251 111.333C177.317 111.141 177.35 110.943 177.35 110.739V110.478H176.18C175.874 110.478 175.631 110.52 175.451 110.604C175.271 110.682 175.142 110.793 175.064 110.937C174.986 111.081 174.947 111.249 174.947 111.441C174.947 111.621 174.986 111.78 175.064 111.918C175.142 112.056 175.256 112.167 175.406 112.251C175.556 112.329 175.736 112.368 175.946 112.368ZM179.737 112.8V108.066H180.304L180.349 108.858C180.487 108.564 180.688 108.342 180.952 108.192C181.216 108.036 181.522 107.958 181.87 107.958C182.212 107.958 182.512 108.024 182.77 108.156C183.028 108.282 183.226 108.477 183.364 108.741C183.508 109.005 183.58 109.341 183.58 109.749V112.8H182.95V109.821C182.95 109.377 182.842 109.047 182.626 108.831C182.416 108.615 182.119 108.507 181.735 108.507C181.477 108.507 181.243 108.567 181.033 108.687C180.829 108.801 180.667 108.972 180.547 109.2C180.427 109.422 180.367 109.701 180.367 110.037V112.8H179.737ZM185.337 112.8V108.066H185.904L185.949 108.858C186.087 108.564 186.288 108.342 186.552 108.192C186.816 108.036 187.122 107.958 187.47 107.958C187.812 107.958 188.112 108.024 188.37 108.156C188.628 108.282 188.826 108.477 188.964 108.741C189.108 109.005 189.18 109.341 189.18 109.749V112.8H188.55V109.821C188.55 109.377 188.442 109.047 188.226 108.831C188.016 108.615 187.719 108.507 187.335 108.507C187.077 108.507 186.843 108.567 186.633 108.687C186.429 108.801 186.267 108.972 186.147 109.2C186.027 109.422 185.967 109.701 185.967 110.037V112.8H185.337ZM192.828 112.908C192.408 112.908 192.039 112.806 191.721 112.602C191.409 112.392 191.166 112.101 190.992 111.729C190.818 111.357 190.731 110.925 190.731 110.433C190.731 109.923 190.818 109.485 190.992 109.119C191.172 108.747 191.421 108.462 191.739 108.264C192.057 108.06 192.423 107.958 192.837 107.958C193.299 107.958 193.68 108.06 193.98 108.264C194.28 108.468 194.505 108.741 194.655 109.083C194.805 109.419 194.88 109.797 194.88 110.217C194.88 110.271 194.88 110.328 194.88 110.388C194.88 110.442 194.877 110.508 194.871 110.586H191.19V110.091H194.268C194.262 109.557 194.124 109.158 193.854 108.894C193.59 108.63 193.245 108.498 192.819 108.498C192.561 108.498 192.318 108.561 192.09 108.687C191.868 108.813 191.688 109.008 191.55 109.272C191.412 109.53 191.343 109.86 191.343 110.262V110.478C191.343 110.898 191.409 111.249 191.541 111.531C191.679 111.807 191.862 112.017 192.09 112.161C192.318 112.299 192.564 112.368 192.828 112.368C193.194 112.368 193.479 112.299 193.683 112.161C193.887 112.017 194.037 111.813 194.133 111.549H194.763C194.685 111.807 194.562 112.041 194.394 112.251C194.226 112.455 194.01 112.617 193.746 112.737C193.488 112.851 193.182 112.908 192.828 112.908ZM198.071 112.908C197.675 112.908 197.339 112.848 197.063 112.728C196.793 112.608 196.583 112.434 196.433 112.206C196.289 111.972 196.202 111.696 196.172 111.378H196.82C196.844 111.57 196.907 111.741 197.009 111.891C197.111 112.041 197.252 112.158 197.432 112.242C197.612 112.326 197.828 112.368 198.08 112.368C198.302 112.368 198.491 112.332 198.647 112.26C198.803 112.188 198.923 112.089 199.007 111.963C199.091 111.831 199.133 111.687 199.133 111.531C199.133 111.315 199.088 111.147 198.998 111.027C198.914 110.901 198.785 110.808 198.611 110.748C198.437 110.682 198.218 110.631 197.954 110.595C197.696 110.559 197.465 110.508 197.261 110.442C197.063 110.376 196.895 110.289 196.757 110.181C196.619 110.073 196.514 109.941 196.442 109.785C196.376 109.629 196.343 109.446 196.343 109.236C196.343 108.984 196.409 108.762 196.541 108.57C196.673 108.378 196.862 108.228 197.108 108.12C197.354 108.012 197.648 107.958 197.99 107.958C198.47 107.958 198.857 108.075 199.151 108.309C199.445 108.537 199.616 108.867 199.664 109.299H199.043C199.019 109.053 198.914 108.858 198.728 108.714C198.548 108.57 198.299 108.498 197.981 108.498C197.651 108.498 197.402 108.564 197.234 108.696C197.066 108.822 196.982 108.99 196.982 109.2C196.982 109.338 197.018 109.467 197.09 109.587C197.162 109.701 197.282 109.8 197.45 109.884C197.618 109.962 197.849 110.022 198.143 110.064C198.479 110.112 198.77 110.181 199.016 110.271C199.262 110.361 199.451 110.502 199.583 110.694C199.715 110.88 199.781 111.141 199.781 111.477C199.781 111.765 199.709 112.017 199.565 112.233C199.427 112.449 199.229 112.617 198.971 112.737C198.719 112.851 198.419 112.908 198.071 112.908ZM200.833 113.907L201.355 111.999H202.03L201.283 113.907H200.833ZM209.175 112.908C208.587 112.908 208.074 112.773 207.636 112.503C207.204 112.227 206.871 111.846 206.637 111.36C206.403 110.868 206.286 110.298 206.286 109.65C206.286 109.002 206.403 108.435 206.637 107.949C206.871 107.457 207.204 107.076 207.636 106.806C208.074 106.53 208.587 106.392 209.175 106.392C209.877 106.392 210.444 106.56 210.876 106.896C211.308 107.226 211.587 107.694 211.713 108.3H211.038C210.93 107.892 210.723 107.565 210.417 107.319C210.117 107.073 209.703 106.95 209.175 106.95C208.725 106.95 208.332 107.058 207.996 107.274C207.66 107.49 207.399 107.799 207.213 108.201C207.027 108.603 206.934 109.086 206.934 109.65C206.934 110.214 207.027 110.697 207.213 111.099C207.399 111.501 207.66 111.81 207.996 112.026C208.332 112.242 208.725 112.35 209.175 112.35C209.697 112.35 210.111 112.23 210.417 111.99C210.729 111.744 210.936 111.42 211.038 111.018H211.713C211.587 111.612 211.308 112.077 210.876 112.413C210.444 112.743 209.877 112.908 209.175 112.908ZM215.295 112.908C214.857 112.908 214.47 112.809 214.134 112.611C213.804 112.407 213.546 112.119 213.36 111.747C213.18 111.375 213.09 110.937 213.09 110.433C213.09 109.929 213.183 109.491 213.369 109.119C213.561 108.747 213.822 108.462 214.152 108.264C214.488 108.06 214.875 107.958 215.313 107.958C215.751 107.958 216.135 108.06 216.465 108.264C216.795 108.462 217.053 108.747 217.239 109.119C217.425 109.491 217.518 109.929 217.518 110.433C217.518 110.937 217.422 111.375 217.23 111.747C217.044 112.119 216.783 112.407 216.447 112.611C216.117 112.809 215.733 112.908 215.295 112.908ZM215.295 112.359C215.589 112.359 215.853 112.29 216.087 112.152C216.327 112.008 216.516 111.792 216.654 111.504C216.798 111.216 216.87 110.859 216.87 110.433C216.87 110.001 216.801 109.644 216.663 109.362C216.525 109.074 216.339 108.861 216.105 108.723C215.871 108.579 215.607 108.507 215.313 108.507C215.025 108.507 214.761 108.579 214.521 108.723C214.281 108.861 214.089 109.074 213.945 109.362C213.807 109.644 213.738 110.001 213.738 110.433C213.738 110.859 213.807 111.216 213.945 111.504C214.083 111.792 214.269 112.008 214.503 112.152C214.743 112.29 215.007 112.359 215.295 112.359ZM214.098 107.652V107.139L215.304 106.401L216.51 107.139V107.652L215.304 106.896L214.098 107.652ZM220.706 112.8C220.448 112.8 220.226 112.761 220.04 112.683C219.854 112.599 219.71 112.461 219.608 112.269C219.512 112.077 219.464 111.819 219.464 111.495V108.597H218.627V108.066H219.464L219.545 106.932H220.094V108.066H221.471V108.597H220.094V111.495C220.094 111.789 220.151 111.99 220.265 112.098C220.379 112.206 220.583 112.26 220.877 112.26H221.435V112.8H220.706ZM224.753 112.908C224.333 112.908 223.964 112.806 223.646 112.602C223.334 112.392 223.091 112.101 222.917 111.729C222.743 111.357 222.656 110.925 222.656 110.433C222.656 109.923 222.743 109.485 222.917 109.119C223.097 108.747 223.346 108.462 223.664 108.264C223.982 108.06 224.348 107.958 224.762 107.958C225.224 107.958 225.605 108.06 225.905 108.264C226.205 108.468 226.43 108.741 226.58 109.083C226.73 109.419 226.805 109.797 226.805 110.217C226.805 110.271 226.805 110.328 226.805 110.388C226.805 110.442 226.802 110.508 226.796 110.586H223.115V110.091H226.193C226.187 109.557 226.049 109.158 225.779 108.894C225.515 108.63 225.17 108.498 224.744 108.498C224.486 108.498 224.243 108.561 224.015 108.687C223.793 108.813 223.613 109.008 223.475 109.272C223.337 109.53 223.268 109.86 223.268 110.262V110.478C223.268 110.898 223.334 111.249 223.466 111.531C223.604 111.807 223.787 112.017 224.015 112.161C224.243 112.299 224.489 112.368 224.753 112.368C225.119 112.368 225.404 112.299 225.608 112.161C225.812 112.017 225.962 111.813 226.058 111.549H226.688C226.61 111.807 226.487 112.041 226.319 112.251C226.151 112.455 225.935 112.617 225.671 112.737C225.413 112.851 225.107 112.908 224.753 112.908ZM233.203 112.908C232.783 112.908 232.414 112.8 232.096 112.584C231.784 112.368 231.541 112.074 231.367 111.702C231.193 111.324 231.106 110.898 231.106 110.424C231.106 109.944 231.193 109.518 231.367 109.146C231.541 108.774 231.787 108.483 232.105 108.273C232.423 108.063 232.792 107.958 233.212 107.958C233.602 107.958 233.938 108.048 234.22 108.228C234.502 108.402 234.727 108.666 234.895 109.02V106.32H235.525V112.8H234.958L234.904 111.846C234.82 112.032 234.7 112.206 234.544 112.368C234.394 112.53 234.205 112.662 233.977 112.764C233.755 112.86 233.497 112.908 233.203 112.908ZM233.293 112.359C233.611 112.359 233.884 112.281 234.112 112.125C234.346 111.969 234.526 111.747 234.652 111.459C234.784 111.171 234.85 110.829 234.85 110.433C234.85 110.037 234.784 109.695 234.652 109.407C234.526 109.119 234.346 108.897 234.112 108.741C233.878 108.585 233.602 108.507 233.284 108.507C232.99 108.507 232.726 108.585 232.492 108.741C232.258 108.897 232.075 109.119 231.943 109.407C231.811 109.689 231.745 110.028 231.745 110.424C231.745 110.826 231.811 111.171 231.943 111.459C232.075 111.747 232.258 111.969 232.492 112.125C232.726 112.281 232.993 112.359 233.293 112.359ZM237.147 107.994L237.03 106.005H237.687L237.588 107.994H237.147ZM238.304 112.8L240.617 106.5H241.292L243.596 112.8H242.93L240.95 107.292L238.961 112.8H238.304ZM239.33 111.027L239.51 110.514H242.363L242.552 111.027H239.33ZM244.732 112.8V112.278L247.405 108.597H244.768V108.066H248.152V108.588L245.47 112.269H248.197V112.8H244.732ZM251.416 112.908C251.074 112.908 250.774 112.845 250.516 112.719C250.264 112.587 250.066 112.389 249.922 112.125C249.778 111.861 249.706 111.525 249.706 111.117V108.066H250.336V111.045C250.336 111.489 250.441 111.819 250.651 112.035C250.867 112.251 251.167 112.359 251.551 112.359C251.809 112.359 252.04 112.302 252.244 112.188C252.448 112.074 252.61 111.903 252.73 111.675C252.85 111.447 252.91 111.165 252.91 110.829V108.066H253.54V112.8H252.982L252.928 111.999C252.796 112.293 252.598 112.518 252.334 112.674C252.07 112.83 251.764 112.908 251.416 112.908ZM255.325 112.8V108.066H255.892L255.946 108.939C256.06 108.711 256.204 108.525 256.378 108.381C256.558 108.237 256.768 108.132 257.008 108.066C257.254 107.994 257.536 107.958 257.854 107.958V108.615H257.404C257.236 108.615 257.065 108.639 256.891 108.687C256.723 108.729 256.567 108.807 256.423 108.921C256.285 109.035 256.171 109.191 256.081 109.389C255.997 109.581 255.955 109.83 255.955 110.136V112.8H255.325Z" fill="black"/>
</g>
<defs>
<filter id="filter0_d_1_154" x="0" y="0" width="478" height="336" filterUnits="userSpaceOnUse" color-interpolation-filters="sRGB">
<feFlood flood-opacity="0" result="BackgroundImageFix"/>
<feColorMatrix in="SourceAlpha" type="matrix" values="0 0 0 0 0 0 0 0 0 0 0 0 0 0 0 0 0 0 127 0" result="hardAlpha"/>
<feMorphology radius="12" operator="erode" in="SourceAlpha" result="effect1_dropShadow_1_154"/>
<feOffset dy="25"/>
<feGaussianBlur stdDeviation="25"/>
<feComposite in2="hardAlpha" operator="out"/>
<feColorMatrix type="matrix" values="0 0 0 0 0 0 0 0 0 0 0 0 0 0 0 0 0 0 0.25 0"/>
<feBlend mode="normal" in2="BackgroundImageFix" result="effect1_dropShadow_1_154"/>
<feBlend mode="normal" in="SourceGraphic" in2="effect1_dropShadow_1_154" result="shape"/>
</filter>
</defs>
</svg>
