<svg width="478" height="336" viewBox="0 0 478 336" fill="none" xmlns="http://www.w3.org/2000/svg">
<g filter="url(#filter0_d_10_12)">
<rect width="402" height="260" transform="translate(38 13)" fill="white"/>
<path d="M81.976 83.9602L82.2316 82.375C83.6635 82.375 84.7117 82.081 85.3765 81.4929C86.0498 80.9048 86.5015 79.9034 86.7316 78.4886L87.3964 74.3977C87.5924 73.2216 87.8737 72.2031 88.2402 71.3423C88.6066 70.4815 89.0882 69.7699 89.6848 69.2074C90.2899 68.6449 91.0399 68.2273 91.9348 67.9545C92.8382 67.6818 93.9163 67.5455 95.1691 67.5455L94.76 70.0511C93.7714 70.0511 92.966 70.2045 92.3439 70.5114C91.7217 70.8182 91.2402 71.2912 90.8992 71.9304C90.5583 72.5696 90.3112 73.392 90.1578 74.3977L89.2885 79.5114C89.1862 80.1761 89.0029 80.7812 88.7387 81.3267C88.4745 81.8722 88.0782 82.3409 87.5498 82.733C87.0214 83.125 86.3055 83.4276 85.4021 83.6406C84.4987 83.8537 83.3566 83.9602 81.976 83.9602ZM89.7487 100.273C88.4958 100.273 87.4646 100.136 86.6549 99.8636C85.8538 99.5909 85.2402 99.1733 84.814 98.6108C84.3964 98.0483 84.145 97.3366 84.0598 96.4759C83.9831 95.6151 84.0385 94.5966 84.226 93.4205L84.8907 89.3295C85.1208 87.9233 85.0058 86.9261 84.5456 86.3381C84.0939 85.7415 83.1521 85.4432 81.7203 85.4432L81.976 83.858C83.3566 83.858 84.4603 83.9645 85.287 84.1776C86.1223 84.3906 86.7402 84.6932 87.1407 85.0852C87.5413 85.4773 87.7842 85.946 87.8694 86.4915C87.9632 87.0369 87.9589 87.642 87.8566 88.3068L86.9873 93.4205C86.8169 94.4261 86.7956 95.2486 86.9234 95.8878C87.0598 96.527 87.3836 97 87.895 97.3068C88.4149 97.6136 89.1691 97.767 90.1578 97.767L89.7487 100.273ZM81.6691 85.4432L82.1805 82.375H85.1975L84.6862 85.4432H81.6691ZM112.321 77.5682C112.321 76.1619 111.856 75.0966 110.927 74.3722C109.998 73.6392 108.741 73.2727 107.156 73.2727C105.997 73.2727 104.953 73.4602 104.024 73.8352C103.095 74.2102 102.336 74.7259 101.748 75.3821C101.16 76.0384 100.798 76.7841 100.662 77.6193C100.551 78.3182 100.623 78.919 100.879 79.4219C101.135 79.9162 101.497 80.3295 101.966 80.6619C102.443 80.9858 102.954 81.2543 103.5 81.4673C104.045 81.6719 104.548 81.8381 105.008 81.9659L107.565 82.6818C108.204 82.8608 108.916 83.108 109.7 83.4233C110.484 83.7386 111.217 84.169 111.899 84.7145C112.581 85.2514 113.101 85.9418 113.459 86.7855C113.825 87.6293 113.906 88.6648 113.701 89.892C113.463 91.3068 112.879 92.5852 111.95 93.7273C111.03 94.8693 109.811 95.777 108.294 96.4503C106.785 97.1236 105.025 97.4602 103.014 97.4602C101.139 97.4602 99.5622 97.1577 98.2838 96.5526C97.0139 95.9474 96.0764 95.1037 95.4713 94.0213C94.8747 92.9389 94.6446 91.6818 94.781 90.25H98.0537C97.9685 91.2386 98.1645 92.0568 98.6418 92.7045C99.119 93.3437 99.7838 93.821 100.636 94.1364C101.488 94.4432 102.434 94.5966 103.474 94.5966C104.684 94.5966 105.801 94.4006 106.824 94.0085C107.855 93.608 108.707 93.054 109.38 92.3466C110.062 91.6307 110.48 90.7955 110.633 89.8409C110.787 88.9716 110.667 88.2642 110.275 87.7188C109.883 87.1733 109.316 86.7301 108.575 86.3892C107.834 86.0483 107.02 85.75 106.133 85.4943L103.065 84.5739C101.122 83.9858 99.6432 83.1463 98.629 82.0554C97.6233 80.9645 97.2611 79.5369 97.5423 77.7727C97.798 76.3068 98.4159 75.0284 99.396 73.9375C100.376 72.8381 101.591 71.9858 103.039 71.3807C104.488 70.767 106.048 70.4602 107.718 70.4602C109.406 70.4602 110.851 70.767 112.052 71.3807C113.254 71.9858 114.149 72.8253 114.737 73.8991C115.325 74.9645 115.542 76.1875 115.389 77.5682H112.321ZM130.34 73.32C129.743 73.32 129.231 73.128 128.804 72.744C128.42 72.3173 128.228 71.8267 128.228 71.272C128.228 70.5467 128.463 69.928 128.932 69.416C129.444 68.904 130.041 68.648 130.724 68.648C131.321 68.648 131.833 68.8613 132.26 69.288C132.687 69.7147 132.9 70.248 132.9 70.888C132.9 71.5707 132.644 72.1467 132.132 72.616C131.62 73.0853 131.023 73.32 130.34 73.32ZM123.3 97.32C122.532 97.32 121.913 97.0427 121.444 96.488C121.017 95.8907 120.804 95.1227 120.804 94.184C120.804 92.9893 121.039 91.7093 121.508 90.344C122.02 88.9787 122.596 87.6133 123.236 86.248C123.919 84.84 124.516 83.5173 125.028 82.28C125.241 81.6827 125.433 81.1493 125.604 80.68C125.775 80.2107 125.86 79.8267 125.86 79.528C125.86 79.1013 125.668 78.888 125.284 78.888C124.772 78.888 124.26 79.208 123.748 79.848C123.236 80.488 122.767 81.2133 122.34 82.024C121.956 82.792 121.636 83.4107 121.38 83.88C120.74 85.1173 120.036 86.3973 119.268 87.72C118.543 89.0427 117.796 90.2587 117.028 91.368C117.028 91.4107 116.985 91.432 116.9 91.432C116.815 91.432 116.708 91.368 116.58 91.24C116.452 91.112 116.409 91.0267 116.452 90.984C117.263 89.832 118.009 88.616 118.692 87.336C119.417 86.0133 120.079 84.7547 120.676 83.56C121.103 82.664 121.572 81.7467 122.084 80.808C122.639 79.8267 123.279 79.016 124.004 78.376C124.729 77.6933 125.561 77.352 126.5 77.352C126.927 77.352 127.417 77.4587 127.972 77.672C128.612 77.928 128.932 78.4827 128.932 79.336C128.932 79.7627 128.847 80.2747 128.676 80.872C128.548 81.4267 128.356 82.0667 128.1 82.792C127.545 84.2427 126.927 85.7147 126.244 87.208C125.604 88.6587 125.007 90.1307 124.452 91.624C124.025 92.776 123.812 93.8 123.812 94.696C123.812 95.6773 124.132 96.168 124.772 96.168C125.369 96.168 126.287 95.6347 127.524 94.568C128.761 93.4587 129.913 92.072 130.98 90.408C132.047 88.7013 133.327 86.4187 134.82 83.56C134.863 83.4747 134.948 83.432 135.076 83.432C135.161 83.432 135.247 83.496 135.332 83.624C135.46 83.7093 135.503 83.7947 135.46 83.88C133.199 88.2747 131.172 91.624 129.38 93.928C127.588 96.1893 125.561 97.32 123.3 97.32ZM142.649 97C141.545 97 140.621 96.832 139.877 96.496C139.133 96.136 138.629 95.548 138.365 94.732C138.101 93.916 138.089 92.836 138.329 91.492L140.093 81.412H137.069L137.465 79.144H140.489L141.605 74.86H144.269L143.513 79.144H148.769L148.373 81.412H143.117L141.353 91.492C141.137 92.716 141.221 93.544 141.605 93.976C141.989 94.384 142.733 94.588 143.837 94.588H145.817L145.421 97H142.649ZM155.872 97.432C154.24 97.432 152.836 97.06 151.66 96.316C150.508 95.572 149.668 94.54 149.14 93.22C148.612 91.876 148.468 90.304 148.708 88.504C148.9 87.064 149.296 85.744 149.896 84.544C150.496 83.344 151.264 82.312 152.2 81.448C153.16 80.584 154.228 79.912 155.404 79.432C156.58 78.952 157.864 78.712 159.256 78.712C160.96 78.712 162.364 79.084 163.468 79.828C164.572 80.548 165.352 81.52 165.808 82.744C166.288 83.944 166.42 85.252 166.204 86.668C166.18 86.98 166.132 87.316 166.06 87.676C166.012 88.036 165.94 88.396 165.844 88.756H150.94L151.336 86.416H163.288C163.456 85.264 163.36 84.304 163 83.536C162.664 82.744 162.124 82.144 161.38 81.736C160.66 81.304 159.784 81.088 158.752 81.088C157.72 81.088 156.724 81.316 155.764 81.772C154.804 82.228 153.976 82.912 153.28 83.824C152.584 84.736 152.116 85.876 151.876 87.244L151.696 88.252C151.432 89.692 151.48 90.904 151.84 91.888C152.2 92.872 152.776 93.628 153.568 94.156C154.384 94.66 155.308 94.912 156.34 94.912C157.588 94.912 158.68 94.624 159.616 94.048C160.576 93.448 161.32 92.656 161.848 91.672H164.836C164.332 92.776 163.648 93.76 162.784 94.624C161.92 95.488 160.9 96.172 159.724 96.676C158.572 97.18 157.288 97.432 155.872 97.432ZM174.032 97.432C172.592 97.432 171.344 97.18 170.288 96.676C169.256 96.172 168.476 95.464 167.948 94.552C167.42 93.64 167.192 92.572 167.264 91.348H170.36C170.36 91.948 170.492 92.536 170.756 93.112C171.02 93.688 171.452 94.156 172.052 94.516C172.652 94.852 173.468 95.02 174.5 95.02C175.364 95.02 176.096 94.9 176.696 94.66C177.296 94.396 177.764 94.048 178.1 93.616C178.46 93.184 178.664 92.692 178.712 92.14C178.808 91.54 178.7 91.06 178.388 90.7C178.1 90.34 177.644 90.028 177.02 89.764C176.396 89.5 175.652 89.248 174.788 89.008C174.116 88.816 173.432 88.6 172.736 88.36C172.064 88.096 171.452 87.784 170.9 87.424C170.348 87.064 169.928 86.608 169.64 86.056C169.376 85.48 169.292 84.784 169.388 83.968C169.532 82.984 169.928 82.096 170.576 81.304C171.224 80.512 172.076 79.888 173.132 79.432C174.212 78.952 175.412 78.712 176.732 78.712C178.628 78.712 180.104 79.18 181.16 80.116C182.24 81.052 182.732 82.408 182.636 84.184H179.612C179.684 83.2 179.432 82.444 178.856 81.916C178.28 81.364 177.428 81.088 176.3 81.088C175.196 81.088 174.308 81.34 173.636 81.844C172.964 82.324 172.58 82.924 172.484 83.644C172.436 84.124 172.532 84.532 172.772 84.868C173.036 85.18 173.456 85.444 174.032 85.66C174.608 85.876 175.34 86.128 176.228 86.416C177.02 86.632 177.764 86.884 178.46 87.172C179.18 87.436 179.804 87.76 180.332 88.144C180.884 88.528 181.304 89.008 181.592 89.584C181.88 90.136 181.976 90.82 181.88 91.636C181.736 92.788 181.304 93.796 180.584 94.66C179.888 95.524 178.976 96.208 177.848 96.712C176.744 97.192 175.472 97.432 174.032 97.432ZM187.154 97L185.39 79.144H188.414L189.602 94.156H189.53L196.226 79.144H199.934L201.41 94.156H201.338L207.746 79.144H210.806L202.598 97H199.034L197.558 81.664H197.666L190.718 97H187.154ZM216.855 97.64C215.02 97.64 213.719 97.0213 212.951 95.784C212.183 94.504 211.799 93.0533 211.799 91.432C211.799 90.4507 211.905 89.4907 212.119 88.552C212.332 87.6133 212.588 86.7387 212.887 85.928C213.356 84.776 214.017 83.56 214.871 82.28C215.767 80.9573 216.833 79.8267 218.071 78.888C219.308 77.9493 220.652 77.48 222.103 77.48C223.297 77.48 224.129 77.8213 224.599 78.504C225.068 79.144 225.303 79.9547 225.303 80.936C225.303 81.1067 225.303 81.2773 225.303 81.448C225.303 81.576 225.281 81.7467 225.239 81.96C225.111 83.112 224.663 84.3067 223.895 85.544C223.127 86.7813 222.167 87.8267 221.015 88.68C219.863 89.4907 218.625 89.896 217.303 89.896C216.535 89.896 215.852 89.6827 215.255 89.256C214.871 90.7067 214.679 92.0293 214.679 93.224C214.679 94.2053 214.849 95.016 215.191 95.656C215.575 96.296 216.151 96.616 216.919 96.616C217.815 96.616 218.881 96.232 220.119 95.464C221.399 94.6533 222.764 93.288 224.215 91.368C225.708 89.448 227.223 86.824 228.759 83.496C228.759 83.4533 228.801 83.432 228.887 83.432C229.015 83.432 229.143 83.496 229.271 83.624C229.441 83.7093 229.484 83.7947 229.399 83.88C227.308 88.616 225.089 92.0933 222.743 94.312C220.439 96.5307 218.476 97.64 216.855 97.64ZM216.983 88.872C217.921 88.872 218.839 88.5307 219.735 87.848C220.631 87.1227 221.441 86.2267 222.167 85.16C222.892 84.0507 223.468 82.9413 223.895 81.832C224.065 81.3627 224.151 80.8293 224.151 80.232C224.151 79.6773 224.044 79.208 223.831 78.824C223.66 78.3973 223.34 78.184 222.871 78.184C222.103 78.184 221.271 78.6747 220.375 79.656C219.479 80.5947 218.647 81.7253 217.879 83.048C217.111 84.328 216.535 85.5013 216.151 86.568C216.023 86.8667 215.895 87.1867 215.767 87.528C215.681 87.8267 215.596 88.1467 215.511 88.488C216.023 88.744 216.513 88.872 216.983 88.872ZM230.971 97L235.317 70.8182H238.334L236.749 80.483H237.005C237.278 80.142 237.657 79.7074 238.143 79.179C238.628 78.642 239.28 78.1648 240.099 77.7472C240.917 77.321 241.965 77.108 243.244 77.108C244.897 77.108 246.282 77.5213 247.398 78.348C248.523 79.1747 249.312 80.3466 249.763 81.8636C250.224 83.3807 250.283 85.1705 249.942 87.233C249.601 89.3125 248.95 91.1151 247.986 92.6406C247.032 94.1577 245.856 95.3338 244.458 96.169C243.069 96.9957 241.556 97.4091 239.92 97.4091C238.658 97.4091 237.682 97.2003 236.992 96.7827C236.31 96.3565 235.807 95.875 235.484 95.3381C235.168 94.7926 234.925 94.3409 234.755 93.983H234.397L233.886 97H230.971ZM235.573 87.1818C235.334 88.6648 235.339 89.973 235.586 91.1065C235.833 92.2315 236.323 93.1136 237.056 93.7528C237.789 94.3835 238.761 94.6989 239.971 94.6989C241.232 94.6989 242.34 94.3665 243.295 93.7017C244.249 93.0284 245.033 92.125 245.647 90.9915C246.261 89.8494 246.687 88.5795 246.925 87.1818C247.147 85.8011 247.138 84.5568 246.9 83.4489C246.67 82.3324 246.184 81.4503 245.442 80.8026C244.709 80.1463 243.704 79.8182 242.425 79.8182C241.198 79.8182 240.111 80.1293 239.165 80.7514C238.228 81.3651 237.452 82.2259 236.839 83.3338C236.234 84.4332 235.812 85.7159 235.573 87.1818Z" fill="black"/>
<path d="M275.189 131.903V133.489C273.765 133.489 272.768 133.787 272.197 134.384C271.635 134.98 271.354 135.977 271.354 137.375V141.466C271.354 142.642 271.238 143.661 271.008 144.521C270.787 145.382 270.42 146.094 269.909 146.656C269.398 147.219 268.716 147.636 267.863 147.909C267.011 148.182 265.959 148.318 264.706 148.318V145.812C265.694 145.812 266.47 145.655 267.032 145.339C267.604 145.033 268.004 144.56 268.234 143.92C268.473 143.281 268.592 142.463 268.592 141.466V136.352C268.592 135.687 268.677 135.082 268.848 134.537C269.027 133.991 269.351 133.523 269.819 133.131C270.288 132.739 270.953 132.436 271.814 132.223C272.683 132.01 273.808 131.903 275.189 131.903ZM264.706 115.591C265.959 115.591 267.011 115.727 267.863 116C268.716 116.273 269.398 116.69 269.909 117.253C270.42 117.815 270.787 118.527 271.008 119.388C271.238 120.249 271.354 121.267 271.354 122.443V126.534C271.354 127.932 271.635 128.929 272.197 129.526C272.768 130.122 273.765 130.42 275.189 130.42V132.006C273.808 132.006 272.683 131.899 271.814 131.686C270.953 131.473 270.288 131.17 269.819 130.778C269.351 130.386 269.027 129.918 268.848 129.372C268.677 128.827 268.592 128.222 268.592 127.557V122.443C268.592 121.446 268.473 120.628 268.234 119.989C268.004 119.341 267.604 118.864 267.032 118.557C266.47 118.25 265.694 118.097 264.706 118.097V115.591ZM275.189 130.42V133.489H272.172V130.42H275.189Z" fill="black"/>
<path d="M65.289 254.132C64.717 254.132 64.2257 254.029 63.815 253.824C63.4043 253.619 63.089 253.333 62.869 252.966C62.649 252.592 62.539 252.167 62.539 251.69H63.353C63.353 252.013 63.4227 252.31 63.562 252.581C63.7013 252.852 63.914 253.069 64.2 253.23C64.486 253.391 64.849 253.472 65.289 253.472C65.6703 253.472 65.9893 253.41 66.246 253.285C66.51 253.16 66.708 252.992 66.84 252.779C66.9793 252.559 67.049 252.317 67.049 252.053C67.049 251.738 66.9793 251.481 66.84 251.283C66.708 251.085 66.5283 250.924 66.301 250.799C66.0737 250.667 65.8097 250.553 65.509 250.458C65.2157 250.355 64.9077 250.253 64.585 250.15C63.9837 249.952 63.54 249.703 63.254 249.402C62.968 249.094 62.825 248.698 62.825 248.214C62.825 247.818 62.9167 247.466 63.1 247.158C63.2907 246.85 63.562 246.608 63.914 246.432C64.2733 246.256 64.6987 246.168 65.19 246.168C65.6667 246.168 66.081 246.256 66.433 246.432C66.7923 246.608 67.071 246.854 67.269 247.169C67.4743 247.484 67.577 247.855 67.577 248.28H66.774C66.774 248.023 66.7117 247.785 66.587 247.565C66.4697 247.345 66.29 247.169 66.048 247.037C65.8133 246.905 65.52 246.839 65.168 246.839C64.8527 246.832 64.5777 246.883 64.343 246.993C64.1157 247.103 63.9397 247.257 63.815 247.455C63.6903 247.646 63.628 247.877 63.628 248.148C63.628 248.419 63.6867 248.639 63.804 248.808C63.9287 248.977 64.101 249.116 64.321 249.226C64.541 249.336 64.794 249.439 65.08 249.534C65.3733 249.622 65.6887 249.728 66.026 249.853C66.378 249.978 66.6897 250.128 66.961 250.304C67.2397 250.48 67.456 250.704 67.61 250.975C67.7713 251.239 67.852 251.584 67.852 252.009C67.852 252.376 67.7567 252.72 67.566 253.043C67.3827 253.366 67.1003 253.63 66.719 253.835C66.3377 254.033 65.861 254.132 65.289 254.132ZM72.0543 254V246.3H72.8243V254H72.0543ZM79.1317 254V246.938H76.8217V246.3H82.2117V246.938H79.9017V254H79.1317ZM86.2125 254V246.3H90.8875V246.938H86.9825V249.809H90.5575V250.447H86.9825V253.362H90.8875V254H86.2125ZM97.5908 254.132C97.0188 254.132 96.5274 254.029 96.1168 253.824C95.7061 253.619 95.3908 253.333 95.1708 252.966C94.9508 252.592 94.8408 252.167 94.8408 251.69H95.6548C95.6548 252.013 95.7244 252.31 95.8638 252.581C96.0031 252.852 96.2158 253.069 96.5018 253.23C96.7878 253.391 97.1508 253.472 97.5908 253.472C97.9721 253.472 98.2911 253.41 98.5478 253.285C98.8118 253.16 99.0098 252.992 99.1418 252.779C99.2811 252.559 99.3508 252.317 99.3508 252.053C99.3508 251.738 99.2811 251.481 99.1418 251.283C99.0098 251.085 98.8301 250.924 98.6028 250.799C98.3754 250.667 98.1114 250.553 97.8108 250.458C97.5174 250.355 97.2094 250.253 96.8868 250.15C96.2854 249.952 95.8418 249.703 95.5558 249.402C95.2698 249.094 95.1268 248.698 95.1268 248.214C95.1268 247.818 95.2184 247.466 95.4018 247.158C95.5924 246.85 95.8638 246.608 96.2158 246.432C96.5751 246.256 97.0004 246.168 97.4918 246.168C97.9684 246.168 98.3828 246.256 98.7348 246.432C99.0941 246.608 99.3728 246.854 99.5708 247.169C99.7761 247.484 99.8788 247.855 99.8788 248.28H99.0758C99.0758 248.023 99.0134 247.785 98.8888 247.565C98.7714 247.345 98.5918 247.169 98.3498 247.037C98.1151 246.905 97.8218 246.839 97.4698 246.839C97.1544 246.832 96.8794 246.883 96.6448 246.993C96.4174 247.103 96.2414 247.257 96.1168 247.455C95.9921 247.646 95.9298 247.877 95.9298 248.148C95.9298 248.419 95.9884 248.639 96.1058 248.808C96.2304 248.977 96.4028 249.116 96.6228 249.226C96.8428 249.336 97.0958 249.439 97.3818 249.534C97.6751 249.622 97.9904 249.728 98.3278 249.853C98.6798 249.978 98.9914 250.128 99.2628 250.304C99.5414 250.48 99.7578 250.704 99.9118 250.975C100.073 251.239 100.154 251.584 100.154 252.009C100.154 252.376 100.058 252.72 99.8678 253.043C99.6844 253.366 99.4021 253.63 99.0208 253.835C98.6394 254.033 98.1628 254.132 97.5908 254.132ZM111.708 254L109.596 246.3H110.41L112.159 253.065L114.128 246.3H114.997L116.911 253.076L118.671 246.3H119.507L117.34 254H116.46L114.535 247.422L112.566 254H111.708ZM123.466 254V246.3H128.141V246.938H124.236V249.809H127.811V250.447H124.236V253.362H128.141V254H123.466ZM132.458 254V246.3H135.043C135.578 246.3 136.022 246.388 136.374 246.564C136.733 246.74 136.997 246.975 137.166 247.268C137.342 247.561 137.43 247.888 137.43 248.247C137.43 248.643 137.342 248.973 137.166 249.237C136.997 249.501 136.773 249.703 136.495 249.842C136.223 249.981 135.937 250.069 135.637 250.106L135.758 249.996C136.088 250.003 136.392 250.091 136.671 250.26C136.949 250.429 137.173 250.656 137.342 250.942C137.518 251.221 137.606 251.54 137.606 251.899C137.606 252.28 137.51 252.632 137.32 252.955C137.136 253.27 136.861 253.523 136.495 253.714C136.128 253.905 135.67 254 135.12 254H132.458ZM133.228 253.351H135.065C135.615 253.351 136.044 253.219 136.352 252.955C136.66 252.691 136.814 252.324 136.814 251.855C136.814 251.4 136.652 251.037 136.33 250.766C136.014 250.487 135.582 250.348 135.032 250.348H133.228V253.351ZM133.228 249.721H135.021C135.541 249.721 135.941 249.596 136.22 249.347C136.498 249.09 136.638 248.749 136.638 248.324C136.638 247.913 136.498 247.583 136.22 247.334C135.941 247.077 135.527 246.949 134.977 246.949H133.228V249.721ZM147.813 250.755C147.652 250.755 147.516 250.7 147.406 250.59C147.296 250.48 147.241 250.344 147.241 250.183C147.241 250.022 147.296 249.89 147.406 249.787C147.516 249.677 147.652 249.622 147.813 249.622C147.982 249.622 148.117 249.677 148.22 249.787C148.323 249.89 148.374 250.022 148.374 250.183C148.374 250.344 148.323 250.48 148.22 250.59C148.117 250.7 147.982 250.755 147.813 250.755ZM161.602 254.132C160.876 254.132 160.245 253.967 159.71 253.637C159.174 253.3 158.76 252.834 158.467 252.24C158.181 251.639 158.038 250.942 158.038 250.15C158.038 249.358 158.181 248.665 158.467 248.071C158.76 247.47 159.174 247.004 159.71 246.674C160.245 246.337 160.876 246.168 161.602 246.168C162.46 246.168 163.156 246.373 163.692 246.784C164.227 247.187 164.572 247.759 164.726 248.5H163.89C163.765 248.001 163.512 247.602 163.131 247.301C162.757 247 162.247 246.85 161.602 246.85C161.044 246.85 160.557 246.982 160.139 247.246C159.728 247.51 159.405 247.888 159.171 248.379C158.943 248.87 158.83 249.461 158.83 250.15C158.83 250.839 158.943 251.43 159.171 251.921C159.405 252.412 159.728 252.79 160.139 253.054C160.557 253.318 161.044 253.45 161.602 253.45C162.247 253.45 162.757 253.303 163.131 253.01C163.512 252.709 163.765 252.313 163.89 251.822H164.726C164.564 252.548 164.22 253.116 163.692 253.527C163.164 253.93 162.467 254.132 161.602 254.132ZM168.185 254L171.023 246.3H171.826L174.653 254H173.839L171.419 247.279L168.988 254H168.185ZM169.461 251.866L169.681 251.239H173.135L173.366 251.866H169.461ZM178.681 254V246.3H181.046C181.648 246.3 182.135 246.399 182.509 246.597C182.883 246.795 183.158 247.063 183.334 247.4C183.518 247.73 183.609 248.108 183.609 248.533C183.609 248.951 183.518 249.329 183.334 249.666C183.151 250.003 182.869 250.275 182.487 250.48C182.106 250.678 181.611 250.777 181.002 250.777H179.451V254H178.681ZM182.773 254L181.046 250.535H181.926L183.697 254H182.773ZM179.451 250.161H180.991C181.607 250.161 182.066 250.014 182.366 249.721C182.667 249.42 182.817 249.024 182.817 248.533C182.817 248.042 182.671 247.657 182.377 247.378C182.084 247.092 181.622 246.949 180.991 246.949H179.451V250.161ZM189.712 254V246.938H187.402V246.3H192.792V246.938H190.482V254H189.712ZM196.793 254V246.3H201.468V246.938H197.563V249.809H201.138V250.447H197.563V253.362H201.468V254H196.793ZM208.171 254.132C207.599 254.132 207.108 254.029 206.697 253.824C206.286 253.619 205.971 253.333 205.751 252.966C205.531 252.592 205.421 252.167 205.421 251.69H206.235C206.235 252.013 206.305 252.31 206.444 252.581C206.583 252.852 206.796 253.069 207.082 253.23C207.368 253.391 207.731 253.472 208.171 253.472C208.552 253.472 208.871 253.41 209.128 253.285C209.392 253.16 209.59 252.992 209.722 252.779C209.861 252.559 209.931 252.317 209.931 252.053C209.931 251.738 209.861 251.481 209.722 251.283C209.59 251.085 209.41 250.924 209.183 250.799C208.956 250.667 208.692 250.553 208.391 250.458C208.098 250.355 207.79 250.253 207.467 250.15C206.866 249.952 206.422 249.703 206.136 249.402C205.85 249.094 205.707 248.698 205.707 248.214C205.707 247.818 205.799 247.466 205.982 247.158C206.173 246.85 206.444 246.608 206.796 246.432C207.155 246.256 207.581 246.168 208.072 246.168C208.549 246.168 208.963 246.256 209.315 246.432C209.674 246.608 209.953 246.854 210.151 247.169C210.356 247.484 210.459 247.855 210.459 248.28H209.656C209.656 248.023 209.594 247.785 209.469 247.565C209.352 247.345 209.172 247.169 208.93 247.037C208.695 246.905 208.402 246.839 208.05 246.839C207.735 246.832 207.46 246.883 207.225 246.993C206.998 247.103 206.822 247.257 206.697 247.455C206.572 247.646 206.51 247.877 206.51 248.148C206.51 248.419 206.569 248.639 206.686 248.808C206.811 248.977 206.983 249.116 207.203 249.226C207.423 249.336 207.676 249.439 207.962 249.534C208.255 249.622 208.571 249.728 208.908 249.853C209.26 249.978 209.572 250.128 209.843 250.304C210.122 250.48 210.338 250.704 210.492 250.975C210.653 251.239 210.734 251.584 210.734 252.009C210.734 252.376 210.639 252.72 210.448 253.043C210.265 253.366 209.982 253.63 209.601 253.835C209.22 254.033 208.743 254.132 208.171 254.132ZM220.748 254V246.3H222.75C223.652 246.3 224.392 246.454 224.972 246.762C225.558 247.07 225.991 247.514 226.27 248.093C226.556 248.672 226.699 249.365 226.699 250.172C226.699 250.964 226.556 251.646 226.27 252.218C225.991 252.79 225.558 253.23 224.972 253.538C224.392 253.846 223.652 254 222.75 254H220.748ZM221.518 253.351H222.739C223.516 253.351 224.136 253.223 224.598 252.966C225.06 252.709 225.393 252.346 225.599 251.877C225.804 251.4 225.907 250.832 225.907 250.172C225.907 249.505 225.804 248.933 225.599 248.456C225.393 247.972 225.06 247.602 224.598 247.345C224.136 247.081 223.516 246.949 222.739 246.949H221.518V253.351ZM230.899 254V246.3H235.574V246.938H231.669V249.809H235.244V250.447H231.669V253.362H235.574V254H230.899ZM248.012 254L245.086 246.3H245.922L248.452 253.175L251.015 246.3H251.829L248.892 254H248.012ZM255.767 254V246.3H256.537V254H255.767ZM263.472 254.132C262.9 254.132 262.408 254.029 261.998 253.824C261.587 253.619 261.272 253.333 261.052 252.966C260.832 252.592 260.722 252.167 260.722 251.69H261.536C261.536 252.013 261.605 252.31 261.745 252.581C261.884 252.852 262.097 253.069 262.383 253.23C262.669 253.391 263.032 253.472 263.472 253.472C263.853 253.472 264.172 253.41 264.429 253.285C264.693 253.16 264.891 252.992 265.023 252.779C265.162 252.559 265.232 252.317 265.232 252.053C265.232 251.738 265.162 251.481 265.023 251.283C264.891 251.085 264.711 250.924 264.484 250.799C264.256 250.667 263.992 250.553 263.692 250.458C263.398 250.355 263.09 250.253 262.768 250.15C262.166 249.952 261.723 249.703 261.437 249.402C261.151 249.094 261.008 248.698 261.008 248.214C261.008 247.818 261.099 247.466 261.283 247.158C261.473 246.85 261.745 246.608 262.097 246.432C262.456 246.256 262.881 246.168 263.373 246.168C263.849 246.168 264.264 246.256 264.616 246.432C264.975 246.608 265.254 246.854 265.452 247.169C265.657 247.484 265.76 247.855 265.76 248.28H264.957C264.957 248.023 264.894 247.785 264.77 247.565C264.652 247.345 264.473 247.169 264.231 247.037C263.996 246.905 263.703 246.839 263.351 246.839C263.035 246.832 262.76 246.883 262.526 246.993C262.298 247.103 262.122 247.257 261.998 247.455C261.873 247.646 261.811 247.877 261.811 248.148C261.811 248.419 261.869 248.639 261.987 248.808C262.111 248.977 262.284 249.116 262.504 249.226C262.724 249.336 262.977 249.439 263.263 249.534C263.556 249.622 263.871 249.728 264.209 249.853C264.561 249.978 264.872 250.128 265.144 250.304C265.422 250.48 265.639 250.704 265.793 250.975C265.954 251.239 266.035 251.584 266.035 252.009C266.035 252.376 265.939 252.72 265.749 253.043C265.565 253.366 265.283 253.63 264.902 253.835C264.52 254.033 264.044 254.132 263.472 254.132ZM270.237 254V246.3H271.007V254H270.237ZM277.314 254V246.938H275.004V246.3H280.394V246.938H278.084V254H277.314ZM284.395 254V246.3H289.07V246.938H285.165V249.809H288.74V250.447H285.165V253.362H289.07V254H284.395ZM299.396 250.755C299.235 250.755 299.099 250.7 298.989 250.59C298.879 250.48 298.824 250.344 298.824 250.183C298.824 250.022 298.879 249.89 298.989 249.787C299.099 249.677 299.235 249.622 299.396 249.622C299.565 249.622 299.7 249.677 299.803 249.787C299.906 249.89 299.957 250.022 299.957 250.183C299.957 250.344 299.906 250.48 299.803 250.59C299.7 250.7 299.565 250.755 299.396 250.755ZM309.962 254V246.3H312.349C312.957 246.3 313.456 246.399 313.845 246.597C314.233 246.795 314.519 247.063 314.703 247.4C314.893 247.737 314.989 248.122 314.989 248.555C314.989 248.98 314.897 249.365 314.714 249.71C314.53 250.047 314.241 250.319 313.845 250.524C313.456 250.722 312.957 250.821 312.349 250.821H310.732V254H309.962ZM310.732 250.172H312.338C312.998 250.172 313.471 250.029 313.757 249.743C314.05 249.45 314.197 249.054 314.197 248.555C314.197 248.042 314.05 247.646 313.757 247.367C313.471 247.088 312.998 246.949 312.338 246.949H310.732V250.172ZM319.092 254V246.3H321.457C322.059 246.3 322.546 246.399 322.92 246.597C323.294 246.795 323.569 247.063 323.745 247.4C323.929 247.73 324.02 248.108 324.02 248.533C324.02 248.951 323.929 249.329 323.745 249.666C323.562 250.003 323.28 250.275 322.898 250.48C322.517 250.678 322.022 250.777 321.413 250.777H319.862V254H319.092ZM323.184 254L321.457 250.535H322.337L324.108 254H323.184ZM319.862 250.161H321.402C322.018 250.161 322.477 250.014 322.777 249.721C323.078 249.42 323.228 249.024 323.228 248.533C323.228 248.042 323.082 247.657 322.788 247.378C322.495 247.092 322.033 246.949 321.402 246.949H319.862V250.161ZM328.363 254V246.3H333.038V246.938H329.133V249.809H332.708V250.447H329.133V253.362H333.038V254H328.363ZM329.771 245.827L329.562 245.332L331.52 243.957L331.828 244.584L329.771 245.827ZM339.741 254.132C339.169 254.132 338.678 254.029 338.267 253.824C337.856 253.619 337.541 253.333 337.321 252.966C337.101 252.592 336.991 252.167 336.991 251.69H337.805C337.805 252.013 337.875 252.31 338.014 252.581C338.153 252.852 338.366 253.069 338.652 253.23C338.938 253.391 339.301 253.472 339.741 253.472C340.122 253.472 340.441 253.41 340.698 253.285C340.962 253.16 341.16 252.992 341.292 252.779C341.431 252.559 341.501 252.317 341.501 252.053C341.501 251.738 341.431 251.481 341.292 251.283C341.16 251.085 340.98 250.924 340.753 250.799C340.526 250.667 340.262 250.553 339.961 250.458C339.668 250.355 339.36 250.253 339.037 250.15C338.436 249.952 337.992 249.703 337.706 249.402C337.42 249.094 337.277 248.698 337.277 248.214C337.277 247.818 337.369 247.466 337.552 247.158C337.743 246.85 338.014 246.608 338.366 246.432C338.725 246.256 339.151 246.168 339.642 246.168C340.119 246.168 340.533 246.256 340.885 246.432C341.244 246.608 341.523 246.854 341.721 247.169C341.926 247.484 342.029 247.855 342.029 248.28H341.226C341.226 248.023 341.164 247.785 341.039 247.565C340.922 247.345 340.742 247.169 340.5 247.037C340.265 246.905 339.972 246.839 339.62 246.839C339.305 246.832 339.03 246.883 338.795 246.993C338.568 247.103 338.392 247.257 338.267 247.455C338.142 247.646 338.08 247.877 338.08 248.148C338.08 248.419 338.139 248.639 338.256 248.808C338.381 248.977 338.553 249.116 338.773 249.226C338.993 249.336 339.246 249.439 339.532 249.534C339.825 249.622 340.141 249.728 340.478 249.853C340.83 249.978 341.142 250.128 341.413 250.304C341.692 250.48 341.908 250.704 342.062 250.975C342.223 251.239 342.304 251.584 342.304 252.009C342.304 252.376 342.209 252.72 342.018 253.043C341.835 253.366 341.552 253.63 341.171 253.835C340.79 254.033 340.313 254.132 339.741 254.132ZM346.506 254V246.3H351.181V246.938H347.276V249.809H350.851V250.447H347.276V253.362H351.181V254H346.506ZM355.498 254V246.3H356.268L360.525 252.735V246.3H361.295V254H360.514L356.268 247.565V254H355.498ZM367.602 254V246.938H365.292V246.3H370.682V246.938H368.372V254H367.602ZM373.264 254L376.102 246.3H376.905L379.732 254H378.918L376.498 247.279L374.067 254H373.264ZM374.54 251.866L374.76 251.239H378.214L378.445 251.866H374.54ZM384.629 254V246.938H382.319V246.3H387.709V246.938H385.399V254H384.629ZM391.71 254V246.3H392.48V254H391.71ZM400.294 254.132C399.575 254.132 398.945 253.967 398.402 253.637C397.867 253.3 397.445 252.834 397.137 252.24C396.836 251.639 396.686 250.942 396.686 250.15C396.686 249.365 396.836 248.676 397.137 248.082C397.445 247.481 397.867 247.011 398.402 246.674C398.945 246.337 399.575 246.168 400.294 246.168C401.027 246.168 401.662 246.337 402.197 246.674C402.74 247.011 403.158 247.481 403.451 248.082C403.752 248.676 403.902 249.365 403.902 250.15C403.902 250.942 403.752 251.639 403.451 252.24C403.158 252.834 402.74 253.3 402.197 253.637C401.662 253.967 401.027 254.132 400.294 254.132ZM400.294 253.45C400.851 253.45 401.343 253.318 401.768 253.054C402.193 252.79 402.523 252.412 402.758 251.921C402.993 251.43 403.11 250.839 403.11 250.15C403.11 249.461 402.993 248.87 402.758 248.379C402.523 247.888 402.193 247.514 401.768 247.257C401.343 246.993 400.851 246.861 400.294 246.861C399.744 246.861 399.256 246.993 398.831 247.257C398.406 247.514 398.072 247.888 397.83 248.379C397.595 248.87 397.478 249.461 397.478 250.15C397.478 250.839 397.595 251.433 397.83 251.932C398.072 252.423 398.406 252.801 398.831 253.065C399.256 253.322 399.744 253.45 400.294 253.45ZM408.113 254V246.3H408.883L413.14 252.735V246.3H413.91V254H413.129L408.883 247.565V254H408.113ZM420.845 254.132C420.273 254.132 419.781 254.029 419.371 253.824C418.96 253.619 418.645 253.333 418.425 252.966C418.205 252.592 418.095 252.167 418.095 251.69H418.909C418.909 252.013 418.978 252.31 419.118 252.581C419.257 252.852 419.47 253.069 419.756 253.23C420.042 253.391 420.405 253.472 420.845 253.472C421.226 253.472 421.545 253.41 421.802 253.285C422.066 253.16 422.264 252.992 422.396 252.779C422.535 252.559 422.605 252.317 422.605 252.053C422.605 251.738 422.535 251.481 422.396 251.283C422.264 251.085 422.084 250.924 421.857 250.799C421.629 250.667 421.365 250.553 421.065 250.458C420.771 250.355 420.463 250.253 420.141 250.15C419.539 249.952 419.096 249.703 418.81 249.402C418.524 249.094 418.381 248.698 418.381 248.214C418.381 247.818 418.472 247.466 418.656 247.158C418.846 246.85 419.118 246.608 419.47 246.432C419.829 246.256 420.254 246.168 420.746 246.168C421.222 246.168 421.637 246.256 421.989 246.432C422.348 246.608 422.627 246.854 422.825 247.169C423.03 247.484 423.133 247.855 423.133 248.28H422.33C422.33 248.023 422.267 247.785 422.143 247.565C422.025 247.345 421.846 247.169 421.604 247.037C421.369 246.905 421.076 246.839 420.724 246.839C420.408 246.832 420.133 246.883 419.899 246.993C419.671 247.103 419.495 247.257 419.371 247.455C419.246 247.646 419.184 247.877 419.184 248.148C419.184 248.419 419.242 248.639 419.36 248.808C419.484 248.977 419.657 249.116 419.877 249.226C420.097 249.336 420.35 249.439 420.636 249.534C420.929 249.622 421.244 249.728 421.582 249.853C421.934 249.978 422.245 250.128 422.517 250.304C422.795 250.48 423.012 250.704 423.166 250.975C423.327 251.239 423.408 251.584 423.408 252.009C423.408 252.376 423.312 252.72 423.122 253.043C422.938 253.366 422.656 253.63 422.275 253.835C421.893 254.033 421.417 254.132 420.845 254.132Z" fill="black"/>
<path d="M170.357 112.908C169.769 112.908 169.256 112.773 168.818 112.503C168.386 112.227 168.053 111.846 167.819 111.36C167.585 110.868 167.468 110.298 167.468 109.65C167.468 109.002 167.585 108.435 167.819 107.949C168.053 107.457 168.386 107.076 168.818 106.806C169.256 106.53 169.769 106.392 170.357 106.392C171.059 106.392 171.626 106.56 172.058 106.896C172.49 107.226 172.769 107.694 172.895 108.3H172.22C172.112 107.892 171.905 107.565 171.599 107.319C171.299 107.073 170.885 106.95 170.357 106.95C169.907 106.95 169.514 107.058 169.178 107.274C168.842 107.49 168.581 107.799 168.395 108.201C168.209 108.603 168.116 109.086 168.116 109.65C168.116 110.214 168.209 110.697 168.395 111.099C168.581 111.501 168.842 111.81 169.178 112.026C169.514 112.242 169.907 112.35 170.357 112.35C170.879 112.35 171.293 112.23 171.599 111.99C171.911 111.744 172.118 111.42 172.22 111.018H172.895C172.769 111.612 172.49 112.077 172.058 112.413C171.626 112.743 171.059 112.908 170.357 112.908ZM175.847 112.908C175.505 112.908 175.217 112.842 174.983 112.71C174.749 112.572 174.572 112.395 174.452 112.179C174.338 111.957 174.281 111.72 174.281 111.468C174.281 111.138 174.356 110.865 174.506 110.649C174.662 110.427 174.878 110.262 175.154 110.154C175.436 110.04 175.76 109.983 176.126 109.983H177.35C177.35 109.659 177.311 109.389 177.233 109.173C177.161 108.951 177.038 108.783 176.864 108.669C176.696 108.555 176.471 108.498 176.189 108.498C175.883 108.498 175.628 108.57 175.424 108.714C175.226 108.858 175.103 109.074 175.055 109.362H174.407C174.449 109.056 174.554 108.798 174.722 108.588C174.89 108.378 175.1 108.222 175.352 108.12C175.61 108.012 175.889 107.958 176.189 107.958C176.609 107.958 176.951 108.039 177.215 108.201C177.479 108.363 177.671 108.588 177.791 108.876C177.917 109.158 177.98 109.485 177.98 109.857V112.8H177.422L177.368 111.954C177.314 112.068 177.242 112.182 177.152 112.296C177.068 112.41 176.963 112.515 176.837 112.611C176.717 112.701 176.573 112.773 176.405 112.827C176.243 112.881 176.057 112.908 175.847 112.908ZM175.946 112.368C176.162 112.368 176.357 112.323 176.531 112.233C176.705 112.137 176.852 112.011 176.972 111.855C177.092 111.699 177.185 111.525 177.251 111.333C177.317 111.141 177.35 110.943 177.35 110.739V110.478H176.18C175.874 110.478 175.631 110.52 175.451 110.604C175.271 110.682 175.142 110.793 175.064 110.937C174.986 111.081 174.947 111.249 174.947 111.441C174.947 111.621 174.986 111.78 175.064 111.918C175.142 112.056 175.256 112.167 175.406 112.251C175.556 112.329 175.736 112.368 175.946 112.368ZM179.737 112.8V108.066H180.304L180.349 108.858C180.487 108.564 180.688 108.342 180.952 108.192C181.216 108.036 181.522 107.958 181.87 107.958C182.212 107.958 182.512 108.024 182.77 108.156C183.028 108.282 183.226 108.477 183.364 108.741C183.508 109.005 183.58 109.341 183.58 109.749V112.8H182.95V109.821C182.95 109.377 182.842 109.047 182.626 108.831C182.416 108.615 182.119 108.507 181.735 108.507C181.477 108.507 181.243 108.567 181.033 108.687C180.829 108.801 180.667 108.972 180.547 109.2C180.427 109.422 180.367 109.701 180.367 110.037V112.8H179.737ZM185.337 112.8V108.066H185.904L185.949 108.858C186.087 108.564 186.288 108.342 186.552 108.192C186.816 108.036 187.122 107.958 187.47 107.958C187.812 107.958 188.112 108.024 188.37 108.156C188.628 108.282 188.826 108.477 188.964 108.741C189.108 109.005 189.18 109.341 189.18 109.749V112.8H188.55V109.821C188.55 109.377 188.442 109.047 188.226 108.831C188.016 108.615 187.719 108.507 187.335 108.507C187.077 108.507 186.843 108.567 186.633 108.687C186.429 108.801 186.267 108.972 186.147 109.2C186.027 109.422 185.967 109.701 185.967 110.037V112.8H185.337ZM192.828 112.908C192.408 112.908 192.039 112.806 191.721 112.602C191.409 112.392 191.166 112.101 190.992 111.729C190.818 111.357 190.731 110.925 190.731 110.433C190.731 109.923 190.818 109.485 190.992 109.119C191.172 108.747 191.421 108.462 191.739 108.264C192.057 108.06 192.423 107.958 192.837 107.958C193.299 107.958 193.68 108.06 193.98 108.264C194.28 108.468 194.505 108.741 194.655 109.083C194.805 109.419 194.88 109.797 194.88 110.217C194.88 110.271 194.88 110.328 194.88 110.388C194.88 110.442 194.877 110.508 194.871 110.586H191.19V110.091H194.268C194.262 109.557 194.124 109.158 193.854 108.894C193.59 108.63 193.245 108.498 192.819 108.498C192.561 108.498 192.318 108.561 192.09 108.687C191.868 108.813 191.688 109.008 191.55 109.272C191.412 109.53 191.343 109.86 191.343 110.262V110.478C191.343 110.898 191.409 111.249 191.541 111.531C191.679 111.807 191.862 112.017 192.09 112.161C192.318 112.299 192.564 112.368 192.828 112.368C193.194 112.368 193.479 112.299 193.683 112.161C193.887 112.017 194.037 111.813 194.133 111.549H194.763C194.685 111.807 194.562 112.041 194.394 112.251C194.226 112.455 194.01 112.617 193.746 112.737C193.488 112.851 193.182 112.908 192.828 112.908ZM198.071 112.908C197.675 112.908 197.339 112.848 197.063 112.728C196.793 112.608 196.583 112.434 196.433 112.206C196.289 111.972 196.202 111.696 196.172 111.378H196.82C196.844 111.57 196.907 111.741 197.009 111.891C197.111 112.041 197.252 112.158 197.432 112.242C197.612 112.326 197.828 112.368 198.08 112.368C198.302 112.368 198.491 112.332 198.647 112.26C198.803 112.188 198.923 112.089 199.007 111.963C199.091 111.831 199.133 111.687 199.133 111.531C199.133 111.315 199.088 111.147 198.998 111.027C198.914 110.901 198.785 110.808 198.611 110.748C198.437 110.682 198.218 110.631 197.954 110.595C197.696 110.559 197.465 110.508 197.261 110.442C197.063 110.376 196.895 110.289 196.757 110.181C196.619 110.073 196.514 109.941 196.442 109.785C196.376 109.629 196.343 109.446 196.343 109.236C196.343 108.984 196.409 108.762 196.541 108.57C196.673 108.378 196.862 108.228 197.108 108.12C197.354 108.012 197.648 107.958 197.99 107.958C198.47 107.958 198.857 108.075 199.151 108.309C199.445 108.537 199.616 108.867 199.664 109.299H199.043C199.019 109.053 198.914 108.858 198.728 108.714C198.548 108.57 198.299 108.498 197.981 108.498C197.651 108.498 197.402 108.564 197.234 108.696C197.066 108.822 196.982 108.99 196.982 109.2C196.982 109.338 197.018 109.467 197.09 109.587C197.162 109.701 197.282 109.8 197.45 109.884C197.618 109.962 197.849 110.022 198.143 110.064C198.479 110.112 198.77 110.181 199.016 110.271C199.262 110.361 199.451 110.502 199.583 110.694C199.715 110.88 199.781 111.141 199.781 111.477C199.781 111.765 199.709 112.017 199.565 112.233C199.427 112.449 199.229 112.617 198.971 112.737C198.719 112.851 198.419 112.908 198.071 112.908ZM200.833 113.907L201.355 111.999H202.03L201.283 113.907H200.833ZM209.175 112.908C208.587 112.908 208.074 112.773 207.636 112.503C207.204 112.227 206.871 111.846 206.637 111.36C206.403 110.868 206.286 110.298 206.286 109.65C206.286 109.002 206.403 108.435 206.637 107.949C206.871 107.457 207.204 107.076 207.636 106.806C208.074 106.53 208.587 106.392 209.175 106.392C209.877 106.392 210.444 106.56 210.876 106.896C211.308 107.226 211.587 107.694 211.713 108.3H211.038C210.93 107.892 210.723 107.565 210.417 107.319C210.117 107.073 209.703 106.95 209.175 106.95C208.725 106.95 208.332 107.058 207.996 107.274C207.66 107.49 207.399 107.799 207.213 108.201C207.027 108.603 206.934 109.086 206.934 109.65C206.934 110.214 207.027 110.697 207.213 111.099C207.399 111.501 207.66 111.81 207.996 112.026C208.332 112.242 208.725 112.35 209.175 112.35C209.697 112.35 210.111 112.23 210.417 111.99C210.729 111.744 210.936 111.42 211.038 111.018H211.713C211.587 111.612 211.308 112.077 210.876 112.413C210.444 112.743 209.877 112.908 209.175 112.908ZM215.295 112.908C214.857 112.908 214.47 112.809 214.134 112.611C213.804 112.407 213.546 112.119 213.36 111.747C213.18 111.375 213.09 110.937 213.09 110.433C213.09 109.929 213.183 109.491 213.369 109.119C213.561 108.747 213.822 108.462 214.152 108.264C214.488 108.06 214.875 107.958 215.313 107.958C215.751 107.958 216.135 108.06 216.465 108.264C216.795 108.462 217.053 108.747 217.239 109.119C217.425 109.491 217.518 109.929 217.518 110.433C217.518 110.937 217.422 111.375 217.23 111.747C217.044 112.119 216.783 112.407 216.447 112.611C216.117 112.809 215.733 112.908 215.295 112.908ZM215.295 112.359C215.589 112.359 215.853 112.29 216.087 112.152C216.327 112.008 216.516 111.792 216.654 111.504C216.798 111.216 216.87 110.859 216.87 110.433C216.87 110.001 216.801 109.644 216.663 109.362C216.525 109.074 216.339 108.861 216.105 108.723C215.871 108.579 215.607 108.507 215.313 108.507C215.025 108.507 214.761 108.579 214.521 108.723C214.281 108.861 214.089 109.074 213.945 109.362C213.807 109.644 213.738 110.001 213.738 110.433C213.738 110.859 213.807 111.216 213.945 111.504C214.083 111.792 214.269 112.008 214.503 112.152C214.743 112.29 215.007 112.359 215.295 112.359ZM214.098 107.652V107.139L215.304 106.401L216.51 107.139V107.652L215.304 106.896L214.098 107.652ZM220.706 112.8C220.448 112.8 220.226 112.761 220.04 112.683C219.854 112.599 219.71 112.461 219.608 112.269C219.512 112.077 219.464 111.819 219.464 111.495V108.597H218.627V108.066H219.464L219.545 106.932H220.094V108.066H221.471V108.597H220.094V111.495C220.094 111.789 220.151 111.99 220.265 112.098C220.379 112.206 220.583 112.26 220.877 112.26H221.435V112.8H220.706ZM224.753 112.908C224.333 112.908 223.964 112.806 223.646 112.602C223.334 112.392 223.091 112.101 222.917 111.729C222.743 111.357 222.656 110.925 222.656 110.433C222.656 109.923 222.743 109.485 222.917 109.119C223.097 108.747 223.346 108.462 223.664 108.264C223.982 108.06 224.348 107.958 224.762 107.958C225.224 107.958 225.605 108.06 225.905 108.264C226.205 108.468 226.43 108.741 226.58 109.083C226.73 109.419 226.805 109.797 226.805 110.217C226.805 110.271 226.805 110.328 226.805 110.388C226.805 110.442 226.802 110.508 226.796 110.586H223.115V110.091H226.193C226.187 109.557 226.049 109.158 225.779 108.894C225.515 108.63 225.17 108.498 224.744 108.498C224.486 108.498 224.243 108.561 224.015 108.687C223.793 108.813 223.613 109.008 223.475 109.272C223.337 109.53 223.268 109.86 223.268 110.262V110.478C223.268 110.898 223.334 111.249 223.466 111.531C223.604 111.807 223.787 112.017 224.015 112.161C224.243 112.299 224.489 112.368 224.753 112.368C225.119 112.368 225.404 112.299 225.608 112.161C225.812 112.017 225.962 111.813 226.058 111.549H226.688C226.61 111.807 226.487 112.041 226.319 112.251C226.151 112.455 225.935 112.617 225.671 112.737C225.413 112.851 225.107 112.908 224.753 112.908ZM233.203 112.908C232.783 112.908 232.414 112.8 232.096 112.584C231.784 112.368 231.541 112.074 231.367 111.702C231.193 111.324 231.106 110.898 231.106 110.424C231.106 109.944 231.193 109.518 231.367 109.146C231.541 108.774 231.787 108.483 232.105 108.273C232.423 108.063 232.792 107.958 233.212 107.958C233.602 107.958 233.938 108.048 234.22 108.228C234.502 108.402 234.727 108.666 234.895 109.02V106.32H235.525V112.8H234.958L234.904 111.846C234.82 112.032 234.7 112.206 234.544 112.368C234.394 112.53 234.205 112.662 233.977 112.764C233.755 112.86 233.497 112.908 233.203 112.908ZM233.293 112.359C233.611 112.359 233.884 112.281 234.112 112.125C234.346 111.969 234.526 111.747 234.652 111.459C234.784 111.171 234.85 110.829 234.85 110.433C234.85 110.037 234.784 109.695 234.652 109.407C234.526 109.119 234.346 108.897 234.112 108.741C233.878 108.585 233.602 108.507 233.284 108.507C232.99 108.507 232.726 108.585 232.492 108.741C232.258 108.897 232.075 109.119 231.943 109.407C231.811 109.689 231.745 110.028 231.745 110.424C231.745 110.826 231.811 111.171 231.943 111.459C232.075 111.747 232.258 111.969 232.492 112.125C232.726 112.281 232.993 112.359 233.293 112.359ZM237.147 107.994L237.03 106.005H237.687L237.588 107.994H237.147ZM238.304 112.8L240.617 106.5H241.292L243.596 112.8H242.93L240.95 107.292L238.961 112.8H238.304ZM239.33 111.027L239.51 110.514H242.363L242.552 111.027H239.33ZM244.732 112.8V112.278L247.405 108.597H244.768V108.066H248.152V108.588L245.47 112.269H248.197V112.8H244.732ZM251.416 112.908C251.074 112.908 250.774 112.845 250.516 112.719C250.264 112.587 250.066 112.389 249.922 112.125C249.778 111.861 249.706 111.525 249.706 111.117V108.066H250.336V111.045C250.336 111.489 250.441 111.819 250.651 112.035C250.867 112.251 251.167 112.359 251.551 112.359C251.809 112.359 252.04 112.302 252.244 112.188C252.448 112.074 252.61 111.903 252.73 111.675C252.85 111.447 252.91 111.165 252.91 110.829V108.066H253.54V112.8H252.982L252.928 111.999C252.796 112.293 252.598 112.518 252.334 112.674C252.07 112.83 251.764 112.908 251.416 112.908ZM255.325 112.8V108.066H255.892L255.946 108.939C256.06 108.711 256.204 108.525 256.378 108.381C256.558 108.237 256.768 108.132 257.008 108.066C257.254 107.994 257.536 107.958 257.854 107.958V108.615H257.404C257.236 108.615 257.065 108.639 256.891 108.687C256.723 108.729 256.567 108.807 256.423 108.921C256.285 109.035 256.171 109.191 256.081 109.389C255.997 109.581 255.955 109.83 255.955 110.136V112.8H255.325Z" fill="black"/>
</g>
<defs>
<filter id="filter0_d_10_12" x="0" y="0" width="478" height="336" filterUnits="userSpaceOnUse" color-interpolation-filters="sRGB">
<feFlood flood-opacity="0" result="BackgroundImageFix"/>
<feColorMatrix in="SourceAlpha" type="matrix" values="0 0 0 0 0 0 0 0 0 0 0 0 0 0 0 0 0 0 127 0" result="hardAlpha"/>
<feMorphology radius="12" operator="erode" in="SourceAlpha" result="effect1_dropShadow_10_12"/>
<feOffset dy="25"/>
<feGaussianBlur stdDeviation="25"/>
<feComposite in2="hardAlpha" operator="out"/>
<feColorMatrix type="matrix" values="0 0 0 0 0 0 0 0 0 0 0 0 0 0 0 0 0 0 0.25 0"/>
<feBlend mode="normal" in2="BackgroundImageFix" result="effect1_dropShadow_10_12"/>
<feBlend mode="normal" in="SourceGraphic" in2="effect1_dropShadow_10_12" result="shape"/>
</filter>
</defs>
</svg>
